<svg width="2340" height="1560" viewBox="0 0 1560 1040" xmlns="http://www.w3.org/2000/svg" role="img" font-family="'Pretendard', 'Malgun Gothic', ui-sans-serif, system-ui, -apple-system, sans-serif">
<title>Yaksok 데이터 모델 v1.2 (한국어/영어)</title>
<desc>계정·건강정보, 인식·대화 세션, 약(식약처 캐시), 성분 매칭, 증상 추천 12개 테이블 관계도. 까마귀발 표기.</desc>
<rect x="0" y="0" width="1560" height="1040" fill="#ffffff"/>

<defs>
  <marker id="one" markerUnits="userSpaceOnUse" markerWidth="18" markerHeight="18" refX="9" refY="9" orient="auto">
    <path d="M9,4 V14" stroke="#64748b" stroke-width="1.5" fill="none"/>
  </marker>
  <marker id="oneOpt" markerUnits="userSpaceOnUse" markerWidth="24" markerHeight="18" refX="14" refY="9" orient="auto">
    <path d="M14,4 V14" stroke="#64748b" stroke-width="1.5" fill="none"/>
    <circle cx="5" cy="9" r="3.2" fill="#ffffff" stroke="#64748b" stroke-width="1.3"/>
  </marker>
  <marker id="many" markerUnits="userSpaceOnUse" markerWidth="18" markerHeight="18" refX="13" refY="9" orient="auto">
    <path d="M0,9 L13,3 M0,9 L13,15 M0,9 L13,9" stroke="#64748b" stroke-width="1.5" fill="none"/>
  </marker>
  <marker id="manyOpt" markerUnits="userSpaceOnUse" markerWidth="24" markerHeight="18" refX="19" refY="9" orient="auto">
    <circle cx="4" cy="9" r="3" fill="#ffffff" stroke="#64748b" stroke-width="1.3"/>
    <path d="M8,9 L19,3 M8,9 L19,15 M8,9 L19,9" stroke="#64748b" stroke-width="1.5" fill="none"/>
  </marker>
  <marker id="manyD" markerUnits="userSpaceOnUse" markerWidth="24" markerHeight="18" refX="19" refY="9" orient="auto">
    <circle cx="4" cy="9" r="3" fill="#ffffff" stroke="#94a3b8" stroke-width="1.3"/>
    <path d="M8,9 L19,3 M8,9 L19,15 M8,9 L19,9" stroke="#94a3b8" stroke-width="1.5" fill="none"/>
  </marker>
  <marker id="oneD" markerUnits="userSpaceOnUse" markerWidth="18" markerHeight="18" refX="9" refY="9" orient="auto">
    <path d="M9,4 V14" stroke="#94a3b8" stroke-width="1.5" fill="none"/>
  </marker>
</defs>

<!-- ===== group backgrounds ===== -->
<g>
  <rect x="24" y="216" width="312" height="660" rx="14" fill="#eef1fc" stroke="#c7d0f5" stroke-width="1.2" stroke-dasharray="2 4"/>
  <text x="40" y="236" font-size="12.5" font-weight="700" fill="#3b5bdb">계정 · 건강정보 <tspan font-size="10" font-weight="600" fill="#7c8cd6">ACCOUNT &#183; HEALTH</tspan></text>

  <rect x="584" y="216" width="282" height="620" rx="14" fill="#eafaf7" stroke="#bfeee6" stroke-width="1.2" stroke-dasharray="2 4"/>
  <text x="600" y="236" font-size="12.5" font-weight="700" fill="#0d9488">인식 · 대화 세션 <tspan font-size="10" font-weight="600" fill="#5cc4b8">SCAN &#183; CHAT</tspan></text>

  <rect x="1214" y="216" width="322" height="221" rx="14" fill="#f1f3f6" stroke="#d8dee7" stroke-width="1.2" stroke-dasharray="2 4"/>
  <text x="1230" y="236" font-size="12.5" font-weight="700" fill="#475569">약 정보 <tspan font-size="10" font-weight="600" fill="#94a3b8">DRUG INFO &#183; 식약처</tspan></text>

  <rect x="1174" y="452" width="362" height="392" rx="14" fill="#fdf4e7" stroke="#f6dcae" stroke-width="1.2" stroke-dasharray="2 4"/>
  <text x="1190" y="472" font-size="12.5" font-weight="700" fill="#d97706">증상 추천 <tspan font-size="10" font-weight="600" fill="#e3ab5c">SYMPTOM</tspan></text>

  <rect x="334" y="876" width="582" height="140" rx="14" fill="#f3effe" stroke="#ddd0fb" stroke-width="1.2" stroke-dasharray="2 4"/>
  <text x="350" y="898" font-size="12.5" font-weight="700" fill="#7c3aed">성분 매칭 <tspan font-size="10" font-weight="600" fill="#a883e8">ALLERGEN MATCH</tspan></text>
</g>

<!-- ===== legend ===== -->
<g transform="translate(24,18)">
  <rect x="0" y="0" width="556" height="178" rx="12" fill="#fcfcfd" stroke="#e5e7eb"/>
  <text x="16" y="22" font-size="12.5" font-weight="700" fill="#374151">읽는 법 · How to read</text>
  <line x1="16" y1="30" x2="540" y2="30" stroke="#eef0f3"/>

  <text x="16" y="47" font-size="10.5" font-weight="700" fill="#6b7280">관계 — 선 끝 모양이 '개수'</text>
  <line x1="22" y1="62" x2="62" y2="62" stroke="#64748b" stroke-width="1.5" marker-end="url(#one)"/>
  <text x="74" y="66" font-size="10" fill="#4b5563">1 — 정확히 하나</text>
  <line x1="22" y1="83" x2="62" y2="83" stroke="#64748b" stroke-width="1.5" marker-end="url(#oneOpt)"/>
  <text x="74" y="87" font-size="10" fill="#4b5563">0..1 — 없거나 하나</text>
  <line x1="22" y1="104" x2="62" y2="104" stroke="#64748b" stroke-width="1.5" marker-end="url(#many)"/>
  <text x="74" y="108" font-size="10" fill="#4b5563">N — 여럿</text>
  <line x1="22" y1="125" x2="62" y2="125" stroke="#64748b" stroke-width="1.5" marker-end="url(#manyOpt)"/>
  <text x="74" y="129" font-size="10" fill="#4b5563">0..N — 없거나 여럿</text>
  <line x1="22" y1="146" x2="62" y2="146" stroke="#94a3b8" stroke-width="1.5" stroke-dasharray="5 4" marker-end="url(#manyD)"/>
  <text x="74" y="150" font-size="10" fill="#4b5563">점선 — 선택적 약 참조(논리 ID)</text>
  <text x="22" y="170" font-size="9" fill="#9ca3af">M:N 은 중간표로 풀어 표현 (예: 약↔성분 = pill_allergens)</text>

  <text x="300" y="47" font-size="10.5" font-weight="700" fill="#6b7280">키 (Keys)</text>
  <g transform="translate(300,53)"><rect width="20" height="13" rx="3" fill="#fde68a"/><text x="10" y="9.5" font-size="7.5" font-weight="700" text-anchor="middle" fill="#92400e">PK</text></g><text x="328" y="63" font-size="10" fill="#4b5563">기본키 — 고유 식별자</text>
  <g transform="translate(300,71)"><rect width="20" height="13" rx="3" fill="#dbeafe"/><text x="10" y="9.5" font-size="7.5" font-weight="700" text-anchor="middle" fill="#1e40af">FK</text></g><text x="328" y="81" font-size="10" fill="#4b5563">외래키 — 다른 표를 가리킴</text>
  <g transform="translate(300,89)"><rect width="26" height="13" rx="3" fill="#dbeafe"/><text x="13" y="9.5" font-size="7.5" font-weight="700" text-anchor="middle" fill="#1e40af">FK?</text></g><text x="334" y="99" font-size="10" fill="#4b5563">선택 외래키 — 빈값(null) 허용</text>
  <g transform="translate(300,107)"><rect width="20" height="13" rx="3" fill="#e5e7eb"/><text x="10" y="9.5" font-size="7.5" font-weight="700" text-anchor="middle" fill="#374151">UQ</text></g><text x="328" y="117" font-size="10" fill="#4b5563">고유값 — 중복 불가</text>

  <text x="300" y="137" font-size="10.5" font-weight="700" fill="#6b7280">색 = 기능 그룹</text>
  <rect x="300" y="146" width="11" height="11" rx="2.5" fill="#3b5bdb"/><text x="315" y="155" font-size="9.5" fill="#4b5563">계정·건강</text>
  <rect x="372" y="146" width="11" height="11" rx="2.5" fill="#0d9488"/><text x="387" y="155" font-size="9.5" fill="#4b5563">인식·대화</text>
  <rect x="444" y="146" width="11" height="11" rx="2.5" fill="#475569"/><text x="459" y="155" font-size="9.5" fill="#4b5563">약 정보</text>
  <rect x="300" y="164" width="11" height="11" rx="2.5" fill="#7c3aed"/><text x="315" y="173" font-size="9.5" fill="#4b5563">성분 매칭</text>
  <rect x="372" y="164" width="11" height="11" rx="2.5" fill="#d97706"/><text x="387" y="173" font-size="9.5" fill="#4b5563">증상 추천</text>
  <text x="444" y="173" font-size="8.5" fill="#9ca3af">검정=뜻 · 회색=컬럼명</text>
</g>

<!-- ===== connectors: solid (real FK) ===== -->
<g stroke="#64748b" stroke-width="1.4" fill="none">
  <path d="M600,90 H180 V250" marker-start="url(#one)" marker-end="url(#oneOpt)"/>
  <path d="M720,150 V210 H725 V250" marker-start="url(#one)" marker-end="url(#manyOpt)"/>
  <path d="M840,70 H890 V565 H850" marker-start="url(#one)" marker-end="url(#manyOpt)"/>
  <path d="M840,50 H1200 V488" marker-start="url(#one)" marker-end="url(#manyOpt)"/>
  <path d="M120,404 V540" marker-start="url(#one)" marker-end="url(#manyOpt)"/>
  <path d="M250,404 V510 H300 V710 H157 V720" marker-start="url(#one)" marker-end="url(#manyOpt)"/>
  <path d="M320,320 H470 V545 H600" marker-start="url(#one)" marker-end="url(#manyOpt)"/>
  <path d="M320,300 V230 H1160 V550 H1190" marker-start="url(#one)" marker-end="url(#manyOpt)"/>
  <path d="M450,910 V890 H157 V857" marker-start="url(#one)" marker-end="url(#manyOpt)"/>
  <path d="M550,950 H640" marker-start="url(#one)" marker-end="url(#manyOpt)"/>
  <path d="M1260,421 V450 H1150 V880 H755 V910" marker-start="url(#one)" marker-end="url(#manyOpt)"/>
  <path d="M1515,421 V695 H1375 V710" marker-start="url(#one)" marker-end="url(#manyOpt)"/>
  <path d="M725,404 V460" marker-start="url(#one)" marker-end="url(#oneOpt)"/>
  <path d="M725,631 V670 H700 V700" marker-start="url(#one)" marker-end="url(#manyOpt)"/>
  <path d="M850,545 H1190" marker-start="url(#one)" marker-end="url(#manyOpt)"/>
  <path d="M1350,642 V700" marker-start="url(#one)" marker-end="url(#manyOpt)"/>
</g>

<!-- ===== connectors: dashed (optional/logical pill refs) ===== -->
<g stroke="#94a3b8" stroke-width="1.4" fill="none" stroke-dasharray="5 4">
  <path d="M1230,330 H850" marker-start="url(#oneD)" marker-end="url(#manyD)"/>
  <path d="M1230,390 H900 V525 H850" marker-start="url(#oneD)" marker-end="url(#manyD)"/>
  <path d="M1255,421 V690 H290 V608 H274" marker-start="url(#oneD)" marker-end="url(#manyD)"/>
</g>

<!-- ============ 계정 users ============ -->
<g>
  <rect x="600" y="30" width="240" height="120" rx="9" fill="#ffffff" stroke="#cbd2dc"/>
  <path d="M600,56 V39 Q600,30 609,30 H831 Q840,30 840,39 V56 Z" fill="#3b5bdb"/>
  <text x="614" y="48" font-size="12.5" font-weight="700" fill="#fff">계정 <tspan font-size="10" fill-opacity="0.8">users</tspan></text>
  <line x1="600" y1="56" x2="840" y2="56" stroke="#cbd2dc"/>
  <text x="614" y="71" font-size="10.5" font-weight="700" fill="#1f2937">번호</text><text x="802" y="71" font-size="9" text-anchor="end" fill="#9aa3af" font-family="ui-monospace,Consolas,monospace">id</text><g transform="translate(808,61)"><rect width="20" height="13" rx="3" fill="#fde68a"/><text x="10" y="9.5" font-size="7.5" font-weight="700" text-anchor="middle" fill="#92400e">PK</text></g>
  <text x="614" y="88" font-size="10.5" fill="#1f2937">이메일</text><text x="802" y="88" font-size="9" text-anchor="end" fill="#9aa3af" font-family="ui-monospace,Consolas,monospace">email</text><g transform="translate(808,78)"><rect width="20" height="13" rx="3" fill="#e5e7eb"/><text x="10" y="9.5" font-size="7.5" font-weight="700" text-anchor="middle" fill="#374151">UQ</text></g>
  <text x="614" y="105" font-size="10.5" fill="#1f2937">비밀번호</text><text x="826" y="105" font-size="9" text-anchor="end" fill="#9aa3af" font-family="ui-monospace,Consolas,monospace">password_hash</text>
  <text x="614" y="122" font-size="10.5" fill="#1f2937">닉네임</text><text x="826" y="122" font-size="9" text-anchor="end" fill="#9aa3af" font-family="ui-monospace,Consolas,monospace">nickname</text>
  <text x="614" y="139" font-size="10.5" fill="#1f2937">가입일시</text><text x="826" y="139" font-size="9" text-anchor="end" fill="#9aa3af" font-family="ui-monospace,Consolas,monospace">created_at</text>
</g>

<!-- ============ 건강정보 health_profiles ============ -->
<g>
  <rect x="40" y="250" width="280" height="154" rx="9" fill="#ffffff" stroke="#cbd2dc"/>
  <path d="M40,276 V259 Q40,250 49,250 H311 Q320,250 320,259 V276 Z" fill="#3b5bdb"/>
  <text x="54" y="268" font-size="12" font-weight="700" fill="#fff">건강정보 <tspan font-size="9.5" fill-opacity="0.8">health_profiles</tspan></text>
  <line x1="40" y1="276" x2="320" y2="276" stroke="#cbd2dc"/>
  <text x="54" y="291" font-size="10.5" font-weight="700" fill="#1f2937">번호</text><text x="282" y="291" font-size="9" text-anchor="end" fill="#9aa3af" font-family="ui-monospace,Consolas,monospace">id</text><g transform="translate(288,281)"><rect width="20" height="13" rx="3" fill="#fde68a"/><text x="10" y="9.5" font-size="7.5" font-weight="700" text-anchor="middle" fill="#92400e">PK</text></g>
  <text x="54" y="308" font-size="10.5" fill="#1f2937">사용자</text><text x="282" y="308" font-size="9" text-anchor="end" fill="#9aa3af" font-family="ui-monospace,Consolas,monospace">user_id</text><g transform="translate(288,298)"><rect width="20" height="13" rx="3" fill="#dbeafe"/><text x="10" y="9.5" font-size="7.5" font-weight="700" text-anchor="middle" fill="#1e40af">FK</text></g>
  <text x="54" y="325" font-size="10.5" fill="#1f2937">출생연도</text><text x="306" y="325" font-size="9" text-anchor="end" fill="#9aa3af" font-family="ui-monospace,Consolas,monospace">birth_year</text>
  <text x="54" y="342" font-size="10.5" fill="#1f2937">성별</text><text x="306" y="342" font-size="9" text-anchor="end" fill="#9aa3af" font-family="ui-monospace,Consolas,monospace">sex</text>
  <text x="54" y="359" font-size="10.5" fill="#1f2937">임신 여부</text><text x="306" y="359" font-size="9" text-anchor="end" fill="#9aa3af" font-family="ui-monospace,Consolas,monospace">is_pregnant</text>
  <text x="54" y="376" font-size="10.5" fill="#1f2937">수유 여부</text><text x="306" y="376" font-size="9" text-anchor="end" fill="#9aa3af" font-family="ui-monospace,Consolas,monospace">is_breastfeeding</text>
  <text x="54" y="393" font-size="10.5" fill="#1f2937">수정일시</text><text x="306" y="393" font-size="9" text-anchor="end" fill="#9aa3af" font-family="ui-monospace,Consolas,monospace">updated_at</text>
</g>

<!-- ============ 복용약 medications ============ -->
<g>
  <rect x="40" y="540" width="234" height="137" rx="9" fill="#ffffff" stroke="#cbd2dc"/>
  <path d="M40,566 V549 Q40,540 49,540 H265 Q274,540 274,549 V566 Z" fill="#3b5bdb"/>
  <text x="54" y="558" font-size="12" font-weight="700" fill="#fff">복용약 <tspan font-size="9.5" fill-opacity="0.8">medications</tspan></text>
  <line x1="40" y1="566" x2="274" y2="566" stroke="#cbd2dc"/>
  <text x="54" y="581" font-size="10.5" font-weight="700" fill="#1f2937">번호</text><text x="236" y="581" font-size="9" text-anchor="end" fill="#9aa3af" font-family="ui-monospace,Consolas,monospace">id</text><g transform="translate(242,571)"><rect width="20" height="13" rx="3" fill="#fde68a"/><text x="10" y="9.5" font-size="7.5" font-weight="700" text-anchor="middle" fill="#92400e">PK</text></g>
  <text x="54" y="598" font-size="10.5" fill="#1f2937">건강정보</text><text x="236" y="598" font-size="9" text-anchor="end" fill="#9aa3af" font-family="ui-monospace,Consolas,monospace">profile_id</text><g transform="translate(242,588)"><rect width="20" height="13" rx="3" fill="#dbeafe"/><text x="10" y="9.5" font-size="7.5" font-weight="700" text-anchor="middle" fill="#1e40af">FK</text></g>
  <text x="54" y="615" font-size="10.5" fill="#1f2937">약 이름</text><text x="260" y="615" font-size="9" text-anchor="end" fill="#9aa3af" font-family="ui-monospace,Consolas,monospace">name</text>
  <text x="54" y="632" font-size="10.5" fill="#1f2937">약품코드</text><text x="230" y="632" font-size="9" text-anchor="end" fill="#9aa3af" font-family="ui-monospace,Consolas,monospace">pill_item_seq</text><g transform="translate(236,622)"><rect width="26" height="13" rx="3" fill="#dbeafe"/><text x="13" y="9.5" font-size="7.5" font-weight="700" text-anchor="middle" fill="#1e40af">FK?</text></g>
  <text x="54" y="649" font-size="10.5" fill="#1f2937">메모</text><text x="260" y="649" font-size="9" text-anchor="end" fill="#9aa3af" font-family="ui-monospace,Consolas,monospace">memo</text>
  <text x="54" y="666" font-size="10.5" fill="#1f2937">등록일시</text><text x="260" y="666" font-size="9" text-anchor="end" fill="#9aa3af" font-family="ui-monospace,Consolas,monospace">created_at</text>
</g>

<!-- ============ 알레르기 allergies ============ -->
<g>
  <rect x="40" y="720" width="234" height="137" rx="9" fill="#ffffff" stroke="#cbd2dc"/>
  <path d="M40,746 V729 Q40,720 49,720 H265 Q274,720 274,729 V746 Z" fill="#3b5bdb"/>
  <text x="54" y="738" font-size="12" font-weight="700" fill="#fff">알레르기 <tspan font-size="9.5" fill-opacity="0.8">allergies</tspan></text>
  <line x1="40" y1="746" x2="274" y2="746" stroke="#cbd2dc"/>
  <text x="54" y="761" font-size="10.5" font-weight="700" fill="#1f2937">번호</text><text x="236" y="761" font-size="9" text-anchor="end" fill="#9aa3af" font-family="ui-monospace,Consolas,monospace">id</text><g transform="translate(242,751)"><rect width="20" height="13" rx="3" fill="#fde68a"/><text x="10" y="9.5" font-size="7.5" font-weight="700" text-anchor="middle" fill="#92400e">PK</text></g>
  <text x="54" y="778" font-size="10.5" fill="#1f2937">건강정보</text><text x="236" y="778" font-size="9" text-anchor="end" fill="#9aa3af" font-family="ui-monospace,Consolas,monospace">profile_id</text><g transform="translate(242,768)"><rect width="20" height="13" rx="3" fill="#dbeafe"/><text x="10" y="9.5" font-size="7.5" font-weight="700" text-anchor="middle" fill="#1e40af">FK</text></g>
  <text x="54" y="795" font-size="10.5" font-weight="700" fill="#7c3aed">성분</text><text x="230" y="795" font-size="9" text-anchor="end" fill="#7c3aed" font-family="ui-monospace,Consolas,monospace">allergen_id</text><g transform="translate(236,785)"><rect width="26" height="13" rx="3" fill="#ede9fe"/><text x="13" y="9.5" font-size="7.5" font-weight="700" text-anchor="middle" fill="#6d28d9">FK?</text></g>
  <text x="54" y="812" font-size="10.5" fill="#1f2937">입력 원문</text><text x="260" y="812" font-size="9" text-anchor="end" fill="#9aa3af" font-family="ui-monospace,Consolas,monospace">name</text>
  <text x="54" y="829" font-size="10.5" fill="#1f2937">메모</text><text x="260" y="829" font-size="9" text-anchor="end" fill="#9aa3af" font-family="ui-monospace,Consolas,monospace">memo</text>
  <text x="54" y="846" font-size="10.5" fill="#1f2937">등록일시</text><text x="260" y="846" font-size="9" text-anchor="end" fill="#9aa3af" font-family="ui-monospace,Consolas,monospace">created_at</text>
</g>

<!-- ============ 인식 scans ============ -->
<g>
  <rect x="600" y="250" width="250" height="154" rx="9" fill="#ffffff" stroke="#cbd2dc"/>
  <path d="M600,276 V259 Q600,250 609,250 H841 Q850,250 850,259 V276 Z" fill="#0d9488"/>
  <text x="614" y="268" font-size="12" font-weight="700" fill="#fff">인식 <tspan font-size="9.5" fill-opacity="0.85">scans</tspan></text>
  <line x1="600" y1="276" x2="850" y2="276" stroke="#cbd2dc"/>
  <text x="614" y="291" font-size="10.5" font-weight="700" fill="#1f2937">번호</text><text x="812" y="291" font-size="9" text-anchor="end" fill="#9aa3af" font-family="ui-monospace,Consolas,monospace">id</text><g transform="translate(818,281)"><rect width="20" height="13" rx="3" fill="#fde68a"/><text x="10" y="9.5" font-size="7.5" font-weight="700" text-anchor="middle" fill="#92400e">PK</text></g>
  <text x="614" y="308" font-size="10.5" fill="#1f2937">사용자</text><text x="812" y="308" font-size="9" text-anchor="end" fill="#9aa3af" font-family="ui-monospace,Consolas,monospace">user_id</text><g transform="translate(818,298)"><rect width="20" height="13" rx="3" fill="#dbeafe"/><text x="10" y="9.5" font-size="7.5" font-weight="700" text-anchor="middle" fill="#1e40af">FK</text></g>
  <text x="614" y="325" font-size="10.5" fill="#1f2937">추출 속성</text><text x="836" y="325" font-size="9" text-anchor="end" fill="#9aa3af" font-family="ui-monospace,Consolas,monospace">vision_attrs</text>
  <text x="614" y="342" font-size="10.5" fill="#1f2937">매칭 품목</text><text x="806" y="342" font-size="9" text-anchor="end" fill="#9aa3af" font-family="ui-monospace,Consolas,monospace">matched_item_seq</text><g transform="translate(812,332)"><rect width="26" height="13" rx="3" fill="#dbeafe"/><text x="13" y="9.5" font-size="7.5" font-weight="700" text-anchor="middle" fill="#1e40af">FK?</text></g>
  <text x="614" y="359" font-size="10.5" fill="#1f2937">신뢰도</text><text x="836" y="359" font-size="9" text-anchor="end" fill="#9aa3af" font-family="ui-monospace,Consolas,monospace">confidence</text>
  <text x="614" y="376" font-size="10.5" fill="#1f2937">상태</text><text x="836" y="376" font-size="9" text-anchor="end" fill="#9aa3af" font-family="ui-monospace,Consolas,monospace">status</text>
  <text x="614" y="393" font-size="10.5" fill="#1f2937">인식일시</text><text x="836" y="393" font-size="9" text-anchor="end" fill="#9aa3af" font-family="ui-monospace,Consolas,monospace">created_at</text>
</g>

<!-- ============ 대화 세션 conversations ============ -->
<g>
  <rect x="600" y="460" width="250" height="171" rx="9" fill="#ffffff" stroke="#cbd2dc"/>
  <path d="M600,486 V469 Q600,460 609,460 H841 Q850,460 850,469 V486 Z" fill="#0d9488"/>
  <text x="614" y="478" font-size="12" font-weight="700" fill="#fff">대화 세션 <tspan font-size="9.5" fill-opacity="0.85">conversations</tspan></text>
  <line x1="600" y1="486" x2="850" y2="486" stroke="#cbd2dc"/>
  <text x="614" y="501" font-size="10.5" font-weight="700" fill="#1f2937">번호</text><text x="812" y="501" font-size="9" text-anchor="end" fill="#9aa3af" font-family="ui-monospace,Consolas,monospace">id</text><g transform="translate(818,491)"><rect width="20" height="13" rx="3" fill="#fde68a"/><text x="10" y="9.5" font-size="7.5" font-weight="700" text-anchor="middle" fill="#92400e">PK</text></g>
  <text x="614" y="518" font-size="10.5" fill="#1f2937">사용자</text><text x="812" y="518" font-size="9" text-anchor="end" fill="#9aa3af" font-family="ui-monospace,Consolas,monospace">user_id</text><g transform="translate(818,508)"><rect width="20" height="13" rx="3" fill="#dbeafe"/><text x="10" y="9.5" font-size="7.5" font-weight="700" text-anchor="middle" fill="#1e40af">FK</text></g>
  <text x="614" y="535" font-size="10.5" font-weight="700" fill="#3b5bdb">건강정보</text><text x="806" y="535" font-size="9" text-anchor="end" fill="#3b5bdb" font-family="ui-monospace,Consolas,monospace">profile_id</text><g transform="translate(812,525)"><rect width="26" height="13" rx="3" fill="#dbe3fb"/><text x="13" y="9.5" font-size="7.5" font-weight="700" text-anchor="middle" fill="#1e40af">FK?</text></g>
  <text x="614" y="552" font-size="10.5" fill="#1f2937">품목코드</text><text x="806" y="552" font-size="9" text-anchor="end" fill="#9aa3af" font-family="ui-monospace,Consolas,monospace">pill_item_seq</text><g transform="translate(812,542)"><rect width="26" height="13" rx="3" fill="#dbeafe"/><text x="13" y="9.5" font-size="7.5" font-weight="700" text-anchor="middle" fill="#1e40af">FK?</text></g>
  <text x="614" y="569" font-size="10.5" fill="#1f2937">인식</text><text x="806" y="569" font-size="9" text-anchor="end" fill="#9aa3af" font-family="ui-monospace,Consolas,monospace">scan_id</text><g transform="translate(812,559)"><rect width="26" height="13" rx="3" fill="#dbeafe"/><text x="13" y="9.5" font-size="7.5" font-weight="700" text-anchor="middle" fill="#1e40af">FK?</text></g>
  <text x="614" y="586" font-size="10.5" font-weight="700" fill="#0d9488">한줄요약</text><text x="836" y="586" font-size="9" text-anchor="end" fill="#0d9488" font-family="ui-monospace,Consolas,monospace">summary</text>
  <text x="614" y="603" font-size="10.5" fill="#1f2937">생성일시</text><text x="836" y="603" font-size="9" text-anchor="end" fill="#9aa3af" font-family="ui-monospace,Consolas,monospace">created_at</text>
  <text x="614" y="620" font-size="10.5" fill="#1f2937">수정일시</text><text x="836" y="620" font-size="9" text-anchor="end" fill="#9aa3af" font-family="ui-monospace,Consolas,monospace">updated_at</text>
</g>

<!-- ============ 대화 메시지 messages ============ -->
<g>
  <rect x="600" y="700" width="200" height="120" rx="9" fill="#ffffff" stroke="#cbd2dc"/>
  <path d="M600,726 V709 Q600,700 609,700 H791 Q800,700 800,709 V726 Z" fill="#0d9488"/>
  <text x="614" y="718" font-size="11.5" font-weight="700" fill="#fff">메시지 <tspan font-size="9.5" fill-opacity="0.85">messages</tspan></text>
  <line x1="600" y1="726" x2="800" y2="726" stroke="#cbd2dc"/>
  <text x="614" y="741" font-size="10.5" font-weight="700" fill="#1f2937">번호</text><text x="762" y="741" font-size="9" text-anchor="end" fill="#9aa3af" font-family="ui-monospace,Consolas,monospace">id</text><g transform="translate(768,731)"><rect width="20" height="13" rx="3" fill="#fde68a"/><text x="10" y="9.5" font-size="7.5" font-weight="700" text-anchor="middle" fill="#92400e">PK</text></g>
  <text x="614" y="758" font-size="10.5" fill="#1f2937">대화</text><text x="762" y="758" font-size="9" text-anchor="end" fill="#9aa3af" font-family="ui-monospace,Consolas,monospace">conversation_id</text><g transform="translate(768,748)"><rect width="20" height="13" rx="3" fill="#dbeafe"/><text x="10" y="9.5" font-size="7.5" font-weight="700" text-anchor="middle" fill="#1e40af">FK</text></g>
  <text x="614" y="775" font-size="10.5" fill="#1f2937">역할</text><text x="786" y="775" font-size="9" text-anchor="end" fill="#9aa3af" font-family="ui-monospace,Consolas,monospace">role</text>
  <text x="614" y="792" font-size="10.5" fill="#1f2937">내용</text><text x="786" y="792" font-size="9" text-anchor="end" fill="#9aa3af" font-family="ui-monospace,Consolas,monospace">content</text>
  <text x="614" y="809" font-size="10.5" fill="#1f2937">작성일시</text><text x="786" y="809" font-size="9" text-anchor="end" fill="#9aa3af" font-family="ui-monospace,Consolas,monospace">created_at</text>
</g>

<!-- ============ 약 pills ============ -->
<g>
  <rect x="1230" y="250" width="290" height="171" rx="9" fill="#ffffff" stroke="#cbd2dc"/>
  <path d="M1230,276 V259 Q1230,250 1239,250 H1511 Q1520,250 1520,259 V276 Z" fill="#475569"/>
  <text x="1244" y="268" font-size="12" font-weight="700" fill="#fff">약 (식약처 캐시) <tspan font-size="9.5" fill-opacity="0.85">pills</tspan></text>
  <line x1="1230" y1="276" x2="1520" y2="276" stroke="#cbd2dc"/>
  <text x="1244" y="291" font-size="10.5" font-weight="700" fill="#1f2937">품목코드</text><text x="1482" y="291" font-size="9" text-anchor="end" fill="#9aa3af" font-family="ui-monospace,Consolas,monospace">item_seq</text><g transform="translate(1488,281)"><rect width="20" height="13" rx="3" fill="#fde68a"/><text x="10" y="9.5" font-size="7.5" font-weight="700" text-anchor="middle" fill="#92400e">PK</text></g>
  <text x="1244" y="308" font-size="10.5" fill="#1f2937">제품명</text><text x="1506" y="308" font-size="9" text-anchor="end" fill="#9aa3af" font-family="ui-monospace,Consolas,monospace">item_name</text>
  <text x="1244" y="325" font-size="10.5" fill="#1f2937">제조사</text><text x="1506" y="325" font-size="9" text-anchor="end" fill="#9aa3af" font-family="ui-monospace,Consolas,monospace">entp_name</text>
  <text x="1244" y="342" font-size="10.5" fill="#1f2937">구분(일반/전문)</text><text x="1506" y="342" font-size="9" text-anchor="end" fill="#9aa3af" font-family="ui-monospace,Consolas,monospace">is_otc</text>
  <text x="1244" y="359" font-size="10.5" fill="#1f2937">모양·색·각인</text><text x="1506" y="359" font-size="9" text-anchor="end" fill="#9aa3af" font-family="ui-monospace,Consolas,monospace">shape/color/mark</text>
  <text x="1244" y="376" font-size="10.5" fill="#1f2937">효능·용법·주의</text><text x="1506" y="376" font-size="9" text-anchor="end" fill="#9aa3af" font-family="ui-monospace,Consolas,monospace">efcy/usage/caution</text>
  <text x="1244" y="393" font-size="10.5" fill="#1f2937">원본 데이터</text><text x="1506" y="393" font-size="9" text-anchor="end" fill="#9aa3af" font-family="ui-monospace,Consolas,monospace">raw_json</text>
  <text x="1244" y="410" font-size="10.5" fill="#1f2937">조회일시</text><text x="1506" y="410" font-size="9" text-anchor="end" fill="#9aa3af" font-family="ui-monospace,Consolas,monospace">fetched_at</text>
</g>

<!-- ============ 증상 추천 symptom_queries ============ -->
<g>
  <rect x="1190" y="488" width="320" height="154" rx="9" fill="#ffffff" stroke="#cbd2dc"/>
  <path d="M1190,514 V497 Q1190,488 1199,488 H1501 Q1510,488 1510,497 V514 Z" fill="#d97706"/>
  <text x="1204" y="506" font-size="12" font-weight="700" fill="#fff">증상 추천 <tspan font-size="9.5" fill-opacity="0.85">symptom_queries</tspan></text>
  <line x1="1190" y1="514" x2="1510" y2="514" stroke="#cbd2dc"/>
  <text x="1204" y="529" font-size="10.5" font-weight="700" fill="#1f2937">번호</text><text x="1472" y="529" font-size="9" text-anchor="end" fill="#9aa3af" font-family="ui-monospace,Consolas,monospace">id</text><g transform="translate(1478,519)"><rect width="20" height="13" rx="3" fill="#fde68a"/><text x="10" y="9.5" font-size="7.5" font-weight="700" text-anchor="middle" fill="#92400e">PK</text></g>
  <text x="1204" y="546" font-size="10.5" fill="#1f2937">사용자</text><text x="1472" y="546" font-size="9" text-anchor="end" fill="#9aa3af" font-family="ui-monospace,Consolas,monospace">user_id</text><g transform="translate(1478,536)"><rect width="20" height="13" rx="3" fill="#dbeafe"/><text x="10" y="9.5" font-size="7.5" font-weight="700" text-anchor="middle" fill="#1e40af">FK</text></g>
  <text x="1204" y="563" font-size="10.5" font-weight="700" fill="#3b5bdb">건강정보</text><text x="1466" y="563" font-size="9" text-anchor="end" fill="#3b5bdb" font-family="ui-monospace,Consolas,monospace">profile_id</text><g transform="translate(1472,553)"><rect width="26" height="13" rx="3" fill="#dbe3fb"/><text x="13" y="9.5" font-size="7.5" font-weight="700" text-anchor="middle" fill="#1e40af">FK?</text></g>
  <text x="1204" y="580" font-size="10.5" font-weight="700" fill="#0d9488">대화 세션</text><text x="1466" y="580" font-size="9" text-anchor="end" fill="#0d9488" font-family="ui-monospace,Consolas,monospace">conversation_id</text><g transform="translate(1472,570)"><rect width="26" height="13" rx="3" fill="#d7f3ee"/><text x="13" y="9.5" font-size="7.5" font-weight="700" text-anchor="middle" fill="#0d7a6f">FK?</text></g>
  <text x="1204" y="597" font-size="10.5" fill="#1f2937">증상</text><text x="1496" y="597" font-size="9" text-anchor="end" fill="#9aa3af" font-family="ui-monospace,Consolas,monospace">symptom_text</text>
  <text x="1204" y="614" font-size="10.5" fill="#1f2937">결과(원본)</text><text x="1496" y="614" font-size="9" text-anchor="end" fill="#9aa3af" font-family="ui-monospace,Consolas,monospace">result</text>
  <text x="1204" y="631" font-size="10.5" fill="#1f2937">작성일시</text><text x="1496" y="631" font-size="9" text-anchor="end" fill="#9aa3af" font-family="ui-monospace,Consolas,monospace">created_at</text>
</g>

<!-- ============ 증상 추천-약 symptom_recommendations ============ -->
<g>
  <rect x="1230" y="700" width="290" height="120" rx="9" fill="#ffffff" stroke="#cbd2dc"/>
  <path d="M1230,726 V709 Q1230,700 1239,700 H1511 Q1520,700 1520,709 V726 Z" fill="#d97706"/>
  <text x="1244" y="718" font-size="11.5" font-weight="700" fill="#fff">추천 약 <tspan font-size="9.5" fill-opacity="0.85">symptom_recommendations</tspan></text>
  <line x1="1230" y1="726" x2="1520" y2="726" stroke="#cbd2dc"/>
  <text x="1244" y="741" font-size="10.5" font-weight="700" fill="#1f2937">번호</text><text x="1482" y="741" font-size="9" text-anchor="end" fill="#9aa3af" font-family="ui-monospace,Consolas,monospace">id</text><g transform="translate(1488,731)"><rect width="20" height="13" rx="3" fill="#fde68a"/><text x="10" y="9.5" font-size="7.5" font-weight="700" text-anchor="middle" fill="#92400e">PK</text></g>
  <text x="1244" y="758" font-size="10.5" fill="#1f2937">증상추천</text><text x="1466" y="758" font-size="9" text-anchor="end" fill="#9aa3af" font-family="ui-monospace,Consolas,monospace">symptom_query_id</text><g transform="translate(1472,748)"><rect width="20" height="13" rx="3" fill="#dbeafe"/><text x="10" y="9.5" font-size="7.5" font-weight="700" text-anchor="middle" fill="#1e40af">FK</text></g>
  <text x="1244" y="775" font-size="10.5" fill="#1f2937">약품코드</text><text x="1472" y="775" font-size="9" text-anchor="end" fill="#9aa3af" font-family="ui-monospace,Consolas,monospace">pill_item_seq</text><g transform="translate(1478,765)"><rect width="20" height="13" rx="3" fill="#dbeafe"/><text x="10" y="9.5" font-size="7.5" font-weight="700" text-anchor="middle" fill="#1e40af">FK</text></g>
  <text x="1244" y="792" font-size="10.5" fill="#1f2937">추천 순위</text><text x="1496" y="792" font-size="9" text-anchor="end" fill="#9aa3af" font-family="ui-monospace,Consolas,monospace">rank</text>
  <text x="1244" y="809" font-size="10.5" fill="#1f2937">추천 이유</text><text x="1496" y="809" font-size="9" text-anchor="end" fill="#9aa3af" font-family="ui-monospace,Consolas,monospace">reason</text>
</g>

<!-- ============ 성분 마스터 allergens ============ -->
<g>
  <rect x="350" y="910" width="200" height="80" rx="9" fill="#ffffff" stroke="#cbd2dc"/>
  <path d="M350,936 V919 Q350,910 359,910 H541 Q550,910 550,919 V936 Z" fill="#7c3aed"/>
  <text x="364" y="928" font-size="11.5" font-weight="700" fill="#fff">성분 (마스터) <tspan font-size="9.5" fill-opacity="0.85">allergens</tspan></text>
  <line x1="350" y1="936" x2="550" y2="936" stroke="#cbd2dc"/>
  <text x="364" y="951" font-size="10.5" font-weight="700" fill="#1f2937">번호</text><text x="512" y="951" font-size="9" text-anchor="end" fill="#9aa3af" font-family="ui-monospace,Consolas,monospace">id</text><g transform="translate(518,941)"><rect width="20" height="13" rx="3" fill="#fde68a"/><text x="10" y="9.5" font-size="7.5" font-weight="700" text-anchor="middle" fill="#92400e">PK</text></g>
  <text x="364" y="968" font-size="10.5" fill="#1f2937">성분명</text><text x="518" y="968" font-size="9" text-anchor="end" fill="#9aa3af" font-family="ui-monospace,Consolas,monospace">name</text><g transform="translate(524,958)"><rect width="20" height="13" rx="3" fill="#e5e7eb"/><text x="10" y="9.5" font-size="7.5" font-weight="700" text-anchor="middle" fill="#374151">UQ</text></g>
</g>

<!-- ============ 약-성분 pill_allergens ============ -->
<g>
  <rect x="640" y="910" width="230" height="86" rx="9" fill="#ffffff" stroke="#cbd2dc"/>
  <path d="M640,936 V919 Q640,910 649,910 H861 Q870,910 870,919 V936 Z" fill="#7c3aed"/>
  <text x="654" y="928" font-size="11.5" font-weight="700" fill="#fff">약-성분 <tspan font-size="9.5" fill-opacity="0.85">pill_allergens</tspan></text>
  <line x1="640" y1="936" x2="870" y2="936" stroke="#cbd2dc"/>
  <text x="654" y="951" font-size="10.5" font-weight="700" fill="#1f2937">번호</text><text x="832" y="951" font-size="9" text-anchor="end" fill="#9aa3af" font-family="ui-monospace,Consolas,monospace">id</text><g transform="translate(838,941)"><rect width="20" height="13" rx="3" fill="#fde68a"/><text x="10" y="9.5" font-size="7.5" font-weight="700" text-anchor="middle" fill="#92400e">PK</text></g>
  <text x="654" y="968" font-size="10.5" fill="#1f2937">약품코드</text><text x="826" y="968" font-size="9" text-anchor="end" fill="#9aa3af" font-family="ui-monospace,Consolas,monospace">pill_item_seq</text><g transform="translate(832,958)"><rect width="20" height="13" rx="3" fill="#dbeafe"/><text x="10" y="9.5" font-size="7.5" font-weight="700" text-anchor="middle" fill="#1e40af">FK</text></g>
  <text x="654" y="985" font-size="10.5" font-weight="700" fill="#7c3aed">성분</text><text x="826" y="985" font-size="9" text-anchor="end" fill="#7c3aed" font-family="ui-monospace,Consolas,monospace">allergen_id</text><g transform="translate(832,975)"><rect width="20" height="13" rx="3" fill="#ede9fe"/><text x="10" y="9.5" font-size="7.5" font-weight="700" text-anchor="middle" fill="#6d28d9">FK</text></g>
</g>
</svg>
