<svg width="1900" height="1184" viewBox="0 0 1300 810" xmlns="http://www.w3.org/2000/svg" role="img" font-family="'Malgun Gothic', ui-sans-serif, system-ui, -apple-system, sans-serif">
<title>pill_recognition 데이터 모델 (한국어/영어)</title>
<desc>계정·건강정보, 인식·대화·요약, 약(식약처 캐시) 테이블 관계도. 까마귀발 표기.</desc>
<rect x="0" y="0" width="1300" height="810" fill="#ffffff"/>

<defs>
  <marker id="one" markerUnits="userSpaceOnUse" markerWidth="18" markerHeight="18" refX="9" refY="9" orient="auto">
    <path d="M9,4 V14" stroke="#64748b" stroke-width="1.5" fill="none"/>
  </marker>
  <marker id="oneOpt" markerUnits="userSpaceOnUse" markerWidth="24" markerHeight="18" refX="14" refY="9" orient="auto">
    <path d="M14,4 V14" stroke="#64748b" stroke-width="1.5" fill="none"/>
    <circle cx="5" cy="9" r="3.2" fill="#ffffff" stroke="#64748b" stroke-width="1.3"/>
  </marker>
  <marker id="many" markerUnits="userSpaceOnUse" markerWidth="18" markerHeight="18" refX="13" refY="9" orient="auto">
    <path d="M0,9 L13,3 M0,9 L13,15 M0,9 L13,9" stroke="#64748b" stroke-width="1.5" fill="none"/>
  </marker>
  <marker id="manyOpt" markerUnits="userSpaceOnUse" markerWidth="24" markerHeight="18" refX="19" refY="9" orient="auto">
    <circle cx="4" cy="9" r="3" fill="#ffffff" stroke="#64748b" stroke-width="1.3"/>
    <path d="M8,9 L19,3 M8,9 L19,15 M8,9 L19,9" stroke="#64748b" stroke-width="1.5" fill="none"/>
  </marker>
</defs>

<!-- ===== group backgrounds ===== -->
<g>
  <rect x="24" y="200" width="510" height="392" rx="14" fill="#eef1fc" stroke="#c7d0f5" stroke-width="1.2" stroke-dasharray="2 4"/>
  <text x="40" y="223" font-size="12.5" font-weight="700" fill="#3b5bdb">건강정보 <tspan font-size="10" font-weight="600" fill="#7c8cd6">HEALTH PROFILE</tspan></text>

  <rect x="548" y="200" width="400" height="560" rx="14" fill="#eafaf7" stroke="#bfeee6" stroke-width="1.2" stroke-dasharray="2 4"/>
  <text x="564" y="223" font-size="12.5" font-weight="700" fill="#0d9488">인식 · 대화 · 요약 <tspan font-size="10" font-weight="600" fill="#5cc4b8">SCAN &#183; CHAT</tspan></text>

  <rect x="952" y="200" width="320" height="234" rx="14" fill="#f1f3f6" stroke="#d8dee7" stroke-width="1.2" stroke-dasharray="2 4"/>
  <text x="968" y="223" font-size="12.5" font-weight="700" fill="#475569">약 정보 <tspan font-size="10" font-weight="600" fill="#94a3b8">DRUG INFO &#183; 식약처</tspan></text>
</g>

<!-- ===== legend ===== -->
<g transform="translate(24,18)">
  <rect x="0" y="0" width="540" height="178" rx="12" fill="#fcfcfd" stroke="#e5e7eb"/>
  <text x="16" y="24" font-size="12.5" font-weight="700" fill="#374151">읽는 법 · How to read</text>
  <line x1="16" y1="32" x2="524" y2="32" stroke="#eef0f3"/>

  <!-- 왼쪽: 관계 -->
  <text x="16" y="50" font-size="10.5" font-weight="700" fill="#6b7280">관계 — 선 끝 모양이 '개수'</text>
  <line x1="22" y1="66" x2="62" y2="66" stroke="#64748b" stroke-width="1.5" marker-end="url(#one)"/>
  <text x="74" y="70" font-size="10" fill="#4b5563">1 — 정확히 하나</text>
  <line x1="22" y1="88" x2="62" y2="88" stroke="#64748b" stroke-width="1.5" marker-end="url(#oneOpt)"/>
  <text x="74" y="92" font-size="10" fill="#4b5563">0..1 — 없거나 하나</text>
  <line x1="22" y1="110" x2="62" y2="110" stroke="#64748b" stroke-width="1.5" marker-end="url(#many)"/>
  <text x="74" y="114" font-size="10" fill="#4b5563">N — 여럿</text>
  <line x1="22" y1="132" x2="62" y2="132" stroke="#64748b" stroke-width="1.5" marker-end="url(#manyOpt)"/>
  <text x="74" y="136" font-size="10" fill="#4b5563">0..N — 없거나 여럿</text>
  <text x="22" y="161" font-size="9.5" fill="#9ca3af">예) 계정 1 → 인식 N : 한 명이 인식을 여러 번</text>

  <!-- 오른쪽: 키 / 색·글자 -->
  <text x="290" y="50" font-size="10.5" font-weight="700" fill="#6b7280">키 (Keys)</text>
  <g transform="translate(290,57)"><rect width="20" height="13" rx="3" fill="#fde68a"/><text x="10" y="9.5" font-size="7.5" font-weight="700" text-anchor="middle" fill="#92400e">PK</text></g><text x="318" y="67" font-size="10" fill="#4b5563">기본키 — 고유 식별자</text>
  <g transform="translate(290,75)"><rect width="20" height="13" rx="3" fill="#dbeafe"/><text x="10" y="9.5" font-size="7.5" font-weight="700" text-anchor="middle" fill="#1e40af">FK</text></g><text x="318" y="85" font-size="10" fill="#4b5563">외래키 — 다른 표를 가리킴</text>
  <g transform="translate(290,93)"><rect width="26" height="13" rx="3" fill="#dbeafe"/><text x="13" y="9.5" font-size="7.5" font-weight="700" text-anchor="middle" fill="#1e40af">FK?</text></g><text x="324" y="103" font-size="10" fill="#4b5563">선택 외래키 — 빈값(null) 허용</text>
  <g transform="translate(290,111)"><rect width="20" height="13" rx="3" fill="#e5e7eb"/><text x="10" y="9.5" font-size="7.5" font-weight="700" text-anchor="middle" fill="#374151">UQ</text></g><text x="318" y="121" font-size="10" fill="#4b5563">고유값 — 중복 불가</text>

  <text x="290" y="143" font-size="10.5" font-weight="700" fill="#6b7280">색·글자</text>
  <rect x="290" y="152" width="11" height="11" rx="2.5" fill="#3b5bdb"/><text x="305" y="161" font-size="9.5" fill="#4b5563">계정·건강</text>
  <rect x="362" y="152" width="11" height="11" rx="2.5" fill="#0d9488"/><text x="377" y="161" font-size="9.5" fill="#4b5563">인식·대화</text>
  <rect x="434" y="152" width="11" height="11" rx="2.5" fill="#475569"/><text x="449" y="161" font-size="9.5" fill="#4b5563">약(외부)</text>
  <text x="290" y="174" font-size="8.5" fill="#9ca3af">검정=한글 뜻 · 회색=DB 컬럼명 · 점선 박스=선택 기능</text>
</g>

<!-- ===== connectors ===== -->
<g stroke="#64748b" stroke-width="1.4" fill="none">
  <path d="M610,148 V180 H280 V246" marker-start="url(#one)" marker-end="url(#oneOpt)"/>
  <path d="M693,148 V180 H760 V246" marker-start="url(#one)" marker-end="url(#manyOpt)"/>
  <path d="M770,148 V190 H852 V470 H818" marker-start="url(#one)" marker-end="url(#manyOpt)"/>
  <path d="M813,96 H912 V532 H972" marker-start="url(#one)" marker-end="url(#manyOpt)"/>
  <path d="M159,406 V430" marker-start="url(#one)" marker-end="url(#manyOpt)"/>
  <path d="M300,406 V418 H399 V430" marker-start="url(#one)" marker-end="url(#manyOpt)"/>
  <path d="M660,406 V430" marker-start="url(#one)" marker-end="url(#oneOpt)"/>
  <path d="M660,590 V614" marker-start="url(#one)" marker-end="url(#manyOpt)"/>
  <path d="M740,590 V602 H850 V614" marker-start="url(#one)" marker-end="url(#manyOpt)"/>
  <path d="M818,326 H972" marker-start="url(#many)" marker-end="url(#oneOpt)"/>
  <path d="M818,500 H890 V370 H972" marker-start="url(#many)" marker-end="url(#oneOpt)"/>
</g>

<!-- ============ 계정 users ============ -->
<g>
  <rect x="573" y="24" width="240" height="124" rx="9" fill="#ffffff" stroke="#cbd2dc"/>
  <path d="M573,50 V33 Q573,24 582,24 H804 Q813,24 813,33 V50 Z" fill="#3b5bdb"/>
  <text x="587" y="42" font-size="12.5" font-weight="700" fill="#fff">계정 <tspan font-size="10" fill-opacity="0.8">users</tspan></text>
  <line x1="573" y1="50" x2="813" y2="50" stroke="#cbd2dc"/>
  <line x1="573" y1="68" x2="813" y2="68" stroke="#eef0f3"/>
  <text x="587" y="63" font-size="11" font-weight="700" fill="#1f2937">번호</text><text x="775" y="63" font-size="9.5" text-anchor="end" fill="#9aa3af" font-family="ui-monospace,Consolas,monospace">id</text><g transform="translate(781,53)"><rect width="20" height="13" rx="3" fill="#fde68a"/><text x="10" y="9.5" font-size="7.5" font-weight="700" text-anchor="middle" fill="#92400e">PK</text></g>
  <text x="587" y="81" font-size="11" fill="#1f2937">이메일</text><text x="775" y="81" font-size="9.5" text-anchor="end" fill="#9aa3af" font-family="ui-monospace,Consolas,monospace">email</text><g transform="translate(781,71)"><rect width="20" height="13" rx="3" fill="#e5e7eb"/><text x="10" y="9.5" font-size="7.5" font-weight="700" text-anchor="middle" fill="#374151">UQ</text></g>
  <text x="587" y="99" font-size="11" fill="#1f2937">비밀번호</text><text x="799" y="99" font-size="9.5" text-anchor="end" fill="#9aa3af" font-family="ui-monospace,Consolas,monospace">password_hash</text>
  <text x="587" y="117" font-size="11" fill="#1f2937">닉네임</text><text x="799" y="117" font-size="9.5" text-anchor="end" fill="#9aa3af" font-family="ui-monospace,Consolas,monospace">nickname</text>
  <text x="587" y="135" font-size="11" fill="#1f2937">가입일시</text><text x="799" y="135" font-size="9.5" text-anchor="end" fill="#9aa3af" font-family="ui-monospace,Consolas,monospace">created_at</text>
</g>

<!-- ============ 건강정보 health_profiles ============ -->
<g>
  <rect x="44" y="246" width="300" height="160" rx="9" fill="#ffffff" stroke="#cbd2dc"/>
  <path d="M44,272 V255 Q44,246 53,246 H335 Q344,246 344,255 V272 Z" fill="#3b5bdb"/>
  <text x="58" y="264" font-size="12.5" font-weight="700" fill="#fff">건강정보 <tspan font-size="10" fill-opacity="0.8">health_profiles</tspan></text>
  <line x1="44" y1="272" x2="344" y2="272" stroke="#cbd2dc"/>
  <line x1="44" y1="290" x2="344" y2="290" stroke="#eef0f3"/>
  <text x="58" y="285" font-size="11" font-weight="700" fill="#1f2937">번호</text><text x="306" y="285" font-size="9.5" text-anchor="end" fill="#9aa3af" font-family="ui-monospace,Consolas,monospace">id</text><g transform="translate(312,275)"><rect width="20" height="13" rx="3" fill="#fde68a"/><text x="10" y="9.5" font-size="7.5" font-weight="700" text-anchor="middle" fill="#92400e">PK</text></g>
  <text x="58" y="303" font-size="11" fill="#1f2937">사용자</text><text x="306" y="303" font-size="9.5" text-anchor="end" fill="#9aa3af" font-family="ui-monospace,Consolas,monospace">user_id</text><g transform="translate(312,293)"><rect width="20" height="13" rx="3" fill="#dbeafe"/><text x="10" y="9.5" font-size="7.5" font-weight="700" text-anchor="middle" fill="#1e40af">FK</text></g>
  <text x="58" y="321" font-size="11" fill="#1f2937">출생연도</text><text x="330" y="321" font-size="9.5" text-anchor="end" fill="#9aa3af" font-family="ui-monospace,Consolas,monospace">birth_year</text>
  <text x="58" y="339" font-size="11" fill="#1f2937">성별</text><text x="330" y="339" font-size="9.5" text-anchor="end" fill="#9aa3af" font-family="ui-monospace,Consolas,monospace">sex</text>
  <text x="58" y="357" font-size="11" fill="#1f2937">임신 여부</text><text x="330" y="357" font-size="9.5" text-anchor="end" fill="#9aa3af" font-family="ui-monospace,Consolas,monospace">is_pregnant</text>
  <text x="58" y="375" font-size="11" fill="#1f2937">수유 여부</text><text x="330" y="375" font-size="9.5" text-anchor="end" fill="#9aa3af" font-family="ui-monospace,Consolas,monospace">is_breastfeeding</text>
  <text x="58" y="393" font-size="11" fill="#1f2937">수정일시</text><text x="330" y="393" font-size="9.5" text-anchor="end" fill="#9aa3af" font-family="ui-monospace,Consolas,monospace">updated_at</text>
</g>

<!-- ============ 복용약 medications ============ -->
<g>
  <rect x="44" y="430" width="230" height="142" rx="9" fill="#ffffff" stroke="#cbd2dc"/>
  <path d="M44,456 V439 Q44,430 53,430 H265 Q274,430 274,439 V456 Z" fill="#3b5bdb"/>
  <text x="58" y="448" font-size="12" font-weight="700" fill="#fff">복용약 <tspan font-size="9.5" fill-opacity="0.8">medications</tspan></text>
  <line x1="44" y1="456" x2="274" y2="456" stroke="#cbd2dc"/>
  <line x1="44" y1="474" x2="274" y2="474" stroke="#eef0f3"/>
  <text x="58" y="469" font-size="11" font-weight="700" fill="#1f2937">번호</text><text x="236" y="469" font-size="9.5" text-anchor="end" fill="#9aa3af" font-family="ui-monospace,Consolas,monospace">id</text><g transform="translate(242,459)"><rect width="20" height="13" rx="3" fill="#fde68a"/><text x="10" y="9.5" font-size="7.5" font-weight="700" text-anchor="middle" fill="#92400e">PK</text></g>
  <text x="58" y="487" font-size="11" fill="#1f2937">건강정보</text><text x="236" y="487" font-size="9.5" text-anchor="end" fill="#9aa3af" font-family="ui-monospace,Consolas,monospace">profile_id</text><g transform="translate(242,477)"><rect width="20" height="13" rx="3" fill="#dbeafe"/><text x="10" y="9.5" font-size="7.5" font-weight="700" text-anchor="middle" fill="#1e40af">FK</text></g>
  <text x="58" y="505" font-size="11" fill="#1f2937">약 이름</text><text x="260" y="505" font-size="9.5" text-anchor="end" fill="#9aa3af" font-family="ui-monospace,Consolas,monospace">name</text>
  <text x="58" y="523" font-size="11" fill="#1f2937">약품코드</text><text x="230" y="523" font-size="9.5" text-anchor="end" fill="#9aa3af" font-family="ui-monospace,Consolas,monospace">pill_item_seq</text><g transform="translate(236,513)"><rect width="26" height="13" rx="3" fill="#dbeafe"/><text x="13" y="9.5" font-size="7.5" font-weight="700" text-anchor="middle" fill="#1e40af">FK?</text></g>
  <text x="58" y="541" font-size="11" fill="#1f2937">메모</text><text x="260" y="541" font-size="9.5" text-anchor="end" fill="#9aa3af" font-family="ui-monospace,Consolas,monospace">memo</text>
  <text x="58" y="559" font-size="11" fill="#1f2937">등록일시</text><text x="260" y="559" font-size="9.5" text-anchor="end" fill="#9aa3af" font-family="ui-monospace,Consolas,monospace">created_at</text>
</g>

<!-- ============ 알레르기 allergies ============ -->
<g>
  <rect x="294" y="430" width="210" height="124" rx="9" fill="#ffffff" stroke="#cbd2dc"/>
  <path d="M294,456 V439 Q294,430 303,430 H495 Q504,430 504,439 V456 Z" fill="#3b5bdb"/>
  <text x="308" y="448" font-size="12" font-weight="700" fill="#fff">알레르기 <tspan font-size="9.5" fill-opacity="0.8">allergies</tspan></text>
  <line x1="294" y1="456" x2="504" y2="456" stroke="#cbd2dc"/>
  <line x1="294" y1="474" x2="504" y2="474" stroke="#eef0f3"/>
  <text x="308" y="469" font-size="11" font-weight="700" fill="#1f2937">번호</text><text x="466" y="469" font-size="9.5" text-anchor="end" fill="#9aa3af" font-family="ui-monospace,Consolas,monospace">id</text><g transform="translate(472,459)"><rect width="20" height="13" rx="3" fill="#fde68a"/><text x="10" y="9.5" font-size="7.5" font-weight="700" text-anchor="middle" fill="#92400e">PK</text></g>
  <text x="308" y="487" font-size="11" fill="#1f2937">건강정보</text><text x="466" y="487" font-size="9.5" text-anchor="end" fill="#9aa3af" font-family="ui-monospace,Consolas,monospace">profile_id</text><g transform="translate(472,477)"><rect width="20" height="13" rx="3" fill="#dbeafe"/><text x="10" y="9.5" font-size="7.5" font-weight="700" text-anchor="middle" fill="#1e40af">FK</text></g>
  <text x="308" y="505" font-size="11" fill="#1f2937">항목명</text><text x="490" y="505" font-size="9.5" text-anchor="end" fill="#9aa3af" font-family="ui-monospace,Consolas,monospace">name</text>
  <text x="308" y="523" font-size="11" fill="#1f2937">메모</text><text x="490" y="523" font-size="9.5" text-anchor="end" fill="#9aa3af" font-family="ui-monospace,Consolas,monospace">memo</text>
  <text x="308" y="541" font-size="11" fill="#1f2937">등록일시</text><text x="490" y="541" font-size="9.5" text-anchor="end" fill="#9aa3af" font-family="ui-monospace,Consolas,monospace">created_at</text>
</g>

<!-- ============ 인식 scans ============ -->
<g>
  <rect x="568" y="246" width="250" height="160" rx="9" fill="#ffffff" stroke="#cbd2dc"/>
  <path d="M568,272 V255 Q568,246 577,246 H809 Q818,246 818,255 V272 Z" fill="#0d9488"/>
  <text x="582" y="264" font-size="12.5" font-weight="700" fill="#fff">인식 <tspan font-size="10" fill-opacity="0.85">scans</tspan></text>
  <line x1="568" y1="272" x2="818" y2="272" stroke="#cbd2dc"/>
  <line x1="568" y1="290" x2="818" y2="290" stroke="#eef0f3"/>
  <text x="582" y="285" font-size="11" font-weight="700" fill="#1f2937">번호</text><text x="780" y="285" font-size="9.5" text-anchor="end" fill="#9aa3af" font-family="ui-monospace,Consolas,monospace">id</text><g transform="translate(786,275)"><rect width="20" height="13" rx="3" fill="#fde68a"/><text x="10" y="9.5" font-size="7.5" font-weight="700" text-anchor="middle" fill="#92400e">PK</text></g>
  <text x="582" y="303" font-size="11" fill="#1f2937">사용자</text><text x="780" y="303" font-size="9.5" text-anchor="end" fill="#9aa3af" font-family="ui-monospace,Consolas,monospace">user_id</text><g transform="translate(786,293)"><rect width="20" height="13" rx="3" fill="#dbeafe"/><text x="10" y="9.5" font-size="7.5" font-weight="700" text-anchor="middle" fill="#1e40af">FK</text></g>
  <text x="582" y="321" font-size="11" fill="#1f2937">추출 속성</text><text x="804" y="321" font-size="9.5" text-anchor="end" fill="#9aa3af" font-family="ui-monospace,Consolas,monospace">vision_attrs</text>
  <text x="582" y="339" font-size="11" fill="#1f2937">매칭 품목</text><text x="774" y="339" font-size="9.5" text-anchor="end" fill="#9aa3af" font-family="ui-monospace,Consolas,monospace">matched_item_seq</text><g transform="translate(780,329)"><rect width="26" height="13" rx="3" fill="#dbeafe"/><text x="13" y="9.5" font-size="7.5" font-weight="700" text-anchor="middle" fill="#1e40af">FK?</text></g>
  <text x="582" y="357" font-size="11" fill="#1f2937">신뢰도</text><text x="804" y="357" font-size="9.5" text-anchor="end" fill="#9aa3af" font-family="ui-monospace,Consolas,monospace">confidence</text>
  <text x="582" y="375" font-size="11" fill="#1f2937">상태</text><text x="804" y="375" font-size="9.5" text-anchor="end" fill="#9aa3af" font-family="ui-monospace,Consolas,monospace">status</text>
  <text x="582" y="393" font-size="11" fill="#1f2937">인식일시</text><text x="804" y="393" font-size="9.5" text-anchor="end" fill="#9aa3af" font-family="ui-monospace,Consolas,monospace">created_at</text>
</g>

<!-- ============ 알약사전 conversations ============ -->
<g>
  <rect x="568" y="430" width="250" height="160" rx="9" fill="#ffffff" stroke="#cbd2dc"/>
  <path d="M568,456 V439 Q568,430 577,430 H809 Q818,430 818,439 V456 Z" fill="#0d9488"/>
  <text x="582" y="448" font-size="12.5" font-weight="700" fill="#fff">알약사전 <tspan font-size="10" fill-opacity="0.85">conversations</tspan></text>
  <line x1="568" y1="456" x2="818" y2="456" stroke="#cbd2dc"/>
  <line x1="568" y1="474" x2="818" y2="474" stroke="#eef0f3"/>
  <text x="582" y="469" font-size="11" font-weight="700" fill="#1f2937">번호</text><text x="780" y="469" font-size="9.5" text-anchor="end" fill="#9aa3af" font-family="ui-monospace,Consolas,monospace">id</text><g transform="translate(786,459)"><rect width="20" height="13" rx="3" fill="#fde68a"/><text x="10" y="9.5" font-size="7.5" font-weight="700" text-anchor="middle" fill="#92400e">PK</text></g>
  <text x="582" y="487" font-size="11" fill="#1f2937">사용자</text><text x="780" y="487" font-size="9.5" text-anchor="end" fill="#9aa3af" font-family="ui-monospace,Consolas,monospace">user_id</text><g transform="translate(786,477)"><rect width="20" height="13" rx="3" fill="#dbeafe"/><text x="10" y="9.5" font-size="7.5" font-weight="700" text-anchor="middle" fill="#1e40af">FK</text></g>
  <text x="582" y="505" font-size="11" fill="#1f2937">품목코드</text><text x="774" y="505" font-size="9.5" text-anchor="end" fill="#9aa3af" font-family="ui-monospace,Consolas,monospace">pill_item_seq</text><g transform="translate(780,495)"><rect width="26" height="13" rx="3" fill="#dbeafe"/><text x="13" y="9.5" font-size="7.5" font-weight="700" text-anchor="middle" fill="#1e40af">FK?</text></g>
  <text x="582" y="523" font-size="11" fill="#1f2937">인식</text><text x="774" y="523" font-size="9.5" text-anchor="end" fill="#9aa3af" font-family="ui-monospace,Consolas,monospace">scan_id</text><g transform="translate(780,513)"><rect width="26" height="13" rx="3" fill="#dbeafe"/><text x="13" y="9.5" font-size="7.5" font-weight="700" text-anchor="middle" fill="#1e40af">FK?</text></g>
  <text x="582" y="541" font-size="11" fill="#1f2937">제목</text><text x="804" y="541" font-size="9.5" text-anchor="end" fill="#9aa3af" font-family="ui-monospace,Consolas,monospace">title</text>
  <text x="582" y="559" font-size="11" fill="#1f2937">생성일시</text><text x="804" y="559" font-size="9.5" text-anchor="end" fill="#9aa3af" font-family="ui-monospace,Consolas,monospace">created_at</text>
  <text x="582" y="577" font-size="11" fill="#1f2937">수정일시</text><text x="804" y="577" font-size="9.5" text-anchor="end" fill="#9aa3af" font-family="ui-monospace,Consolas,monospace">updated_at</text>
</g>

<!-- ============ 대화 메시지 messages ============ -->
<g>
  <rect x="568" y="614" width="185" height="124" rx="9" fill="#ffffff" stroke="#cbd2dc"/>
  <path d="M568,640 V623 Q568,614 577,614 H744 Q753,614 753,623 V640 Z" fill="#0d9488"/>
  <text x="582" y="632" font-size="11.5" font-weight="700" fill="#fff">대화 <tspan font-size="9.5" fill-opacity="0.85">messages</tspan></text>
  <line x1="568" y1="640" x2="753" y2="640" stroke="#cbd2dc"/>
  <line x1="568" y1="658" x2="753" y2="658" stroke="#eef0f3"/>
  <text x="582" y="653" font-size="11" font-weight="700" fill="#1f2937">번호</text><text x="715" y="653" font-size="9.5" text-anchor="end" fill="#9aa3af" font-family="ui-monospace,Consolas,monospace">id</text><g transform="translate(721,643)"><rect width="20" height="13" rx="3" fill="#fde68a"/><text x="10" y="9.5" font-size="7.5" font-weight="700" text-anchor="middle" fill="#92400e">PK</text></g>
  <text x="582" y="671" font-size="11" fill="#1f2937">대화</text><text x="715" y="671" font-size="9.5" text-anchor="end" fill="#9aa3af" font-family="ui-monospace,Consolas,monospace">conversation_id</text><g transform="translate(721,661)"><rect width="20" height="13" rx="3" fill="#dbeafe"/><text x="10" y="9.5" font-size="7.5" font-weight="700" text-anchor="middle" fill="#1e40af">FK</text></g>
  <text x="582" y="689" font-size="11" fill="#1f2937">역할</text><text x="739" y="689" font-size="9.5" text-anchor="end" fill="#9aa3af" font-family="ui-monospace,Consolas,monospace">role</text>
  <text x="582" y="707" font-size="11" fill="#1f2937">내용</text><text x="739" y="707" font-size="9.5" text-anchor="end" fill="#9aa3af" font-family="ui-monospace,Consolas,monospace">content</text>
  <text x="582" y="725" font-size="11" fill="#1f2937">작성일시</text><text x="739" y="725" font-size="9.5" text-anchor="end" fill="#9aa3af" font-family="ui-monospace,Consolas,monospace">created_at</text>
</g>

<!-- ============ 요약 summaries ============ -->
<g>
  <rect x="768" y="614" width="165" height="142" rx="9" fill="#ffffff" stroke="#cbd2dc"/>
  <path d="M768,640 V623 Q768,614 777,614 H924 Q933,614 933,623 V640 Z" fill="#0d9488"/>
  <text x="782" y="632" font-size="11.5" font-weight="700" fill="#fff">요약 <tspan font-size="9.5" fill-opacity="0.85">summaries</tspan></text>
  <line x1="768" y1="640" x2="933" y2="640" stroke="#cbd2dc"/>
  <line x1="768" y1="658" x2="933" y2="658" stroke="#eef0f3"/>
  <text x="782" y="653" font-size="11" font-weight="700" fill="#1f2937">번호</text><text x="895" y="653" font-size="9.5" text-anchor="end" fill="#9aa3af" font-family="ui-monospace,Consolas,monospace">id</text><g transform="translate(901,643)"><rect width="20" height="13" rx="3" fill="#fde68a"/><text x="10" y="9.5" font-size="7.5" font-weight="700" text-anchor="middle" fill="#92400e">PK</text></g>
  <text x="782" y="671" font-size="11" fill="#1f2937">대화</text><text x="895" y="671" font-size="9.5" text-anchor="end" fill="#9aa3af" font-family="ui-monospace,Consolas,monospace">conversation_id</text><g transform="translate(901,661)"><rect width="20" height="13" rx="3" fill="#dbeafe"/><text x="10" y="9.5" font-size="7.5" font-weight="700" text-anchor="middle" fill="#1e40af">FK</text></g>
  <text x="782" y="689" font-size="11" fill="#1f2937">버전</text><text x="919" y="689" font-size="9.5" text-anchor="end" fill="#9aa3af" font-family="ui-monospace,Consolas,monospace">version</text>
  <text x="782" y="707" font-size="11" fill="#1f2937">내용</text><text x="919" y="707" font-size="9.5" text-anchor="end" fill="#9aa3af" font-family="ui-monospace,Consolas,monospace">content</text>
  <text x="782" y="725" font-size="11" fill="#1f2937">작성일시</text><text x="919" y="725" font-size="9.5" text-anchor="end" fill="#9aa3af" font-family="ui-monospace,Consolas,monospace">created_at</text>
  <text x="782" y="745" font-size="8.5" fill="#9aa3af">고유 unique(conversation_id, version)</text>
</g>

<!-- ============ 약 pills ============ -->
<g>
  <rect x="972" y="246" width="290" height="178" rx="9" fill="#ffffff" stroke="#cbd2dc"/>
  <path d="M972,272 V255 Q972,246 981,246 H1253 Q1262,246 1262,255 V272 Z" fill="#475569"/>
  <text x="986" y="264" font-size="12.5" font-weight="700" fill="#fff">약 (식약처 캐시) <tspan font-size="10" fill-opacity="0.85">pills</tspan></text>
  <line x1="972" y1="272" x2="1262" y2="272" stroke="#cbd2dc"/>
  <line x1="972" y1="290" x2="1262" y2="290" stroke="#eef0f3"/>
  <text x="986" y="285" font-size="11" font-weight="700" fill="#1f2937">품목코드</text><text x="1224" y="285" font-size="9.5" text-anchor="end" fill="#9aa3af" font-family="ui-monospace,Consolas,monospace">item_seq</text><g transform="translate(1230,275)"><rect width="20" height="13" rx="3" fill="#fde68a"/><text x="10" y="9.5" font-size="7.5" font-weight="700" text-anchor="middle" fill="#92400e">PK</text></g>
  <text x="986" y="303" font-size="11" fill="#1f2937">제품명</text><text x="1248" y="303" font-size="9.5" text-anchor="end" fill="#9aa3af" font-family="ui-monospace,Consolas,monospace">item_name</text>
  <text x="986" y="321" font-size="11" fill="#1f2937">제조사</text><text x="1248" y="321" font-size="9.5" text-anchor="end" fill="#9aa3af" font-family="ui-monospace,Consolas,monospace">entp_name</text>
  <text x="986" y="339" font-size="11" fill="#1f2937">구분(일반/전문)</text><text x="1248" y="339" font-size="9.5" text-anchor="end" fill="#9aa3af" font-family="ui-monospace,Consolas,monospace">is_otc</text>
  <text x="986" y="357" font-size="11" fill="#1f2937">모양·색·각인</text><text x="1248" y="357" font-size="9.5" text-anchor="end" fill="#9aa3af" font-family="ui-monospace,Consolas,monospace">shape/color/mark</text>
  <text x="986" y="375" font-size="11" fill="#1f2937">효능·용법·주의</text><text x="1248" y="375" font-size="9.5" text-anchor="end" fill="#9aa3af" font-family="ui-monospace,Consolas,monospace">efcy/usage/caution</text>
  <text x="986" y="393" font-size="11" fill="#1f2937">원본 데이터</text><text x="1248" y="393" font-size="9.5" text-anchor="end" fill="#9aa3af" font-family="ui-monospace,Consolas,monospace">raw_json</text>
  <text x="986" y="411" font-size="11" fill="#1f2937">조회일시</text><text x="1248" y="411" font-size="9.5" text-anchor="end" fill="#9aa3af" font-family="ui-monospace,Consolas,monospace">fetched_at</text>
</g>

<!-- ============ 증상 추천 symptom_queries (선택) ============ -->
<g>
  <rect x="972" y="470" width="290" height="124" rx="9" fill="#ffffff" stroke="#9bd5cd" stroke-dasharray="5 4"/>
  <path d="M972,496 V479 Q972,470 981,470 H1253 Q1262,470 1262,479 V496 Z" fill="#0d9488" fill-opacity="0.8"/>
  <text x="986" y="488" font-size="12" font-weight="700" fill="#fff">증상 추천 (선택) <tspan font-size="9.5" fill-opacity="0.85">symptom_queries</tspan></text>
  <line x1="972" y1="496" x2="1262" y2="496" stroke="#e3eeec"/>
  <line x1="972" y1="514" x2="1262" y2="514" stroke="#eef0f3"/>
  <text x="986" y="509" font-size="11" font-weight="700" fill="#1f2937">번호</text><text x="1224" y="509" font-size="9.5" text-anchor="end" fill="#9aa3af" font-family="ui-monospace,Consolas,monospace">id</text><g transform="translate(1230,499)"><rect width="20" height="13" rx="3" fill="#fde68a"/><text x="10" y="9.5" font-size="7.5" font-weight="700" text-anchor="middle" fill="#92400e">PK</text></g>
  <text x="986" y="527" font-size="11" fill="#1f2937">사용자</text><text x="1224" y="527" font-size="9.5" text-anchor="end" fill="#9aa3af" font-family="ui-monospace,Consolas,monospace">user_id</text><g transform="translate(1230,517)"><rect width="20" height="13" rx="3" fill="#dbeafe"/><text x="10" y="9.5" font-size="7.5" font-weight="700" text-anchor="middle" fill="#1e40af">FK</text></g>
  <text x="986" y="545" font-size="11" fill="#1f2937">증상</text><text x="1248" y="545" font-size="9.5" text-anchor="end" fill="#9aa3af" font-family="ui-monospace,Consolas,monospace">symptom_text</text>
  <text x="986" y="563" font-size="11" fill="#1f2937">결과(추천 OTC)</text><text x="1248" y="563" font-size="9.5" text-anchor="end" fill="#9aa3af" font-family="ui-monospace,Consolas,monospace">result</text>
  <text x="986" y="581" font-size="11" fill="#1f2937">작성일시</text><text x="1248" y="581" font-size="9.5" text-anchor="end" fill="#9aa3af" font-family="ui-monospace,Consolas,monospace">created_at</text>
</g>
</svg>
