<svg width="2340" height="1545" viewBox="0 0 1560 1030" xmlns="http://www.w3.org/2000/svg" role="img" font-family="'Pretendard', 'Malgun Gothic', ui-sans-serif, system-ui, -apple-system, sans-serif">
<title>pill_recognition 데이터 모델 v1.2 (한국어/영어)</title>
<desc>계정·건강정보, 인식·대화 세션, 약(식약처 캐시), 성분 매칭, 증상 추천 12개 테이블 관계도. 까마귀발 표기.</desc>
<rect x="0" y="0" width="1560" height="1030" fill="#ffffff"/>

<defs>
  <marker id="one" markerUnits="userSpaceOnUse" markerWidth="18" markerHeight="18" refX="9" refY="9" orient="auto">
    <path d="M9,4 V14" stroke="#64748b" stroke-width="1.5" fill="none"/>
  </marker>
  <marker id="oneOpt" markerUnits="userSpaceOnUse" markerWidth="24" markerHeight="18" refX="14" refY="9" orient="auto">
    <path d="M14,4 V14" stroke="#64748b" stroke-width="1.5" fill="none"/>
    <circle cx="5" cy="9" r="3.2" fill="#ffffff" stroke="#64748b" stroke-width="1.3"/>
  </marker>
  <marker id="many" markerUnits="userSpaceOnUse" markerWidth="18" markerHeight="18" refX="13" refY="9" orient="auto">
    <path d="M0,9 L13,3 M0,9 L13,15 M0,9 L13,9" stroke="#64748b" stroke-width="1.5" fill="none"/>
  </marker>
  <marker id="manyOpt" markerUnits="userSpaceOnUse" markerWidth="24" markerHeight="18" refX="19" refY="9" orient="auto">
    <circle cx="4" cy="9" r="3" fill="#ffffff" stroke="#64748b" stroke-width="1.3"/>
    <path d="M8,9 L19,3 M8,9 L19,15 M8,9 L19,9" stroke="#64748b" stroke-width="1.5" fill="none"/>
  </marker>
</defs>

<!-- ===== group backgrounds ===== -->
<g>
  <rect x="24" y="216" width="307" height="636" rx="14" fill="#eef1fc" stroke="#c7d0f5" stroke-width="1.2" stroke-dasharray="2 4"/>
  <text x="40" y="236" font-size="12.5" font-weight="700" fill="#3b5bdb">계정 · 건강정보 <tspan font-size="10" font-weight="600" fill="#7c8cd6">ACCOUNT &#183; HEALTH</tspan></text>

  <rect x="604" y="216" width="282" height="630" rx="14" fill="#eafaf7" stroke="#bfeee6" stroke-width="1.2" stroke-dasharray="2 4"/>
  <text x="620" y="236" font-size="12.5" font-weight="700" fill="#0d9488">인식 · 대화 세션 <tspan font-size="10" font-weight="600" fill="#5cc4b8">SCAN &#183; CHAT</tspan></text>

  <rect x="1224" y="216" width="322" height="221" rx="14" fill="#f1f3f6" stroke="#d8dee7" stroke-width="1.2" stroke-dasharray="2 4"/>
  <text x="1240" y="236" font-size="12.5" font-weight="700" fill="#475569">약 정보 <tspan font-size="10" font-weight="600" fill="#94a3b8">DRUG INFO &#183; 식약처</tspan></text>

  <rect x="1184" y="446" width="362" height="400" rx="14" fill="#fdf4e7" stroke="#f6dcae" stroke-width="1.2" stroke-dasharray="2 4"/>
  <text x="1200" y="468" font-size="12.5" font-weight="700" fill="#d97706">증상 추천 <tspan font-size="10" font-weight="600" fill="#e3ab5c">SYMPTOM</tspan></text>

  <rect x="344" y="866" width="562" height="136" rx="14" fill="#f3effe" stroke="#ddd0fb" stroke-width="1.2" stroke-dasharray="2 4"/>
  <text x="360" y="888" font-size="12.5" font-weight="700" fill="#7c3aed">성분 매칭 <tspan font-size="10" font-weight="600" fill="#a883e8">ALLERGEN MATCH</tspan></text>
</g>

<!-- ===== legend ===== -->
<g transform="translate(24,18)">
  <rect x="0" y="0" width="556" height="196" rx="12" fill="#fcfcfd" stroke="#e5e7eb"/>
  <text x="16" y="24" font-size="12.5" font-weight="700" fill="#374151">읽는 법 · How to read</text>
  <line x1="16" y1="32" x2="540" y2="32" stroke="#eef0f3"/>

  <text x="16" y="50" font-size="10.5" font-weight="700" fill="#6b7280">관계 — 선 끝 모양이 '개수'</text>
  <line x1="22" y1="66" x2="62" y2="66" stroke="#64748b" stroke-width="1.5" marker-end="url(#one)"/>
  <text x="74" y="70" font-size="10" fill="#4b5563">1 — 정확히 하나</text>
  <line x1="22" y1="88" x2="62" y2="88" stroke="#64748b" stroke-width="1.5" marker-end="url(#oneOpt)"/>
  <text x="74" y="92" font-size="10" fill="#4b5563">0..1 — 없거나 하나</text>
  <line x1="22" y1="110" x2="62" y2="110" stroke="#64748b" stroke-width="1.5" marker-end="url(#many)"/>
  <text x="74" y="114" font-size="10" fill="#4b5563">N — 여럿</text>
  <line x1="22" y1="132" x2="62" y2="132" stroke="#64748b" stroke-width="1.5" marker-end="url(#manyOpt)"/>
  <text x="74" y="136" font-size="10" fill="#4b5563">0..N — 없거나 여럿</text>
  <text x="22" y="161" font-size="9.5" fill="#9ca3af">예) 계정 1 → 인식 N : 한 명이 인식을 여러 번</text>
  <text x="22" y="182" font-size="9.5" font-weight="600" fill="#7c3aed">M:N 은 중간표로 풀어 표현 (예: 약↔성분 = pill_allergens)</text>

  <text x="300" y="50" font-size="10.5" font-weight="700" fill="#6b7280">키 (Keys)</text>
  <g transform="translate(300,57)"><rect width="20" height="13" rx="3" fill="#fde68a"/><text x="10" y="9.5" font-size="7.5" font-weight="700" text-anchor="middle" fill="#92400e">PK</text></g><text x="328" y="67" font-size="10" fill="#4b5563">기본키 — 고유 식별자</text>
  <g transform="translate(300,75)"><rect width="20" height="13" rx="3" fill="#dbeafe"/><text x="10" y="9.5" font-size="7.5" font-weight="700" text-anchor="middle" fill="#1e40af">FK</text></g><text x="328" y="85" font-size="10" fill="#4b5563">외래키 — 다른 표를 가리킴</text>
  <g transform="translate(300,93)"><rect width="26" height="13" rx="3" fill="#dbeafe"/><text x="13" y="9.5" font-size="7.5" font-weight="700" text-anchor="middle" fill="#1e40af">FK?</text></g><text x="334" y="103" font-size="10" fill="#4b5563">선택 외래키 — 빈값(null) 허용</text>
  <g transform="translate(300,111)"><rect width="20" height="13" rx="3" fill="#e5e7eb"/><text x="10" y="9.5" font-size="7.5" font-weight="700" text-anchor="middle" fill="#374151">UQ</text></g><text x="328" y="121" font-size="10" fill="#4b5563">고유값 — 중복 불가</text>

  <text x="300" y="143" font-size="10.5" font-weight="700" fill="#6b7280">색 = 기능 그룹</text>
  <rect x="300" y="152" width="11" height="11" rx="2.5" fill="#3b5bdb"/><text x="315" y="161" font-size="9.5" fill="#4b5563">계정·건강</text>
  <rect x="372" y="152" width="11" height="11" rx="2.5" fill="#0d9488"/><text x="387" y="161" font-size="9.5" fill="#4b5563">인식·대화</text>
  <rect x="444" y="152" width="11" height="11" rx="2.5" fill="#475569"/><text x="459" y="161" font-size="9.5" fill="#4b5563">약 정보</text>
  <rect x="300" y="170" width="11" height="11" rx="2.5" fill="#7c3aed"/><text x="315" y="179" font-size="9.5" fill="#4b5563">성분 매칭</text>
  <rect x="372" y="170" width="11" height="11" rx="2.5" fill="#d97706"/><text x="387" y="179" font-size="9.5" fill="#4b5563">증상 추천</text>
  <text x="444" y="179" font-size="8.5" fill="#9ca3af">검정=뜻 · 회색=컬럼명</text>
</g>

<!-- ===== connectors ===== -->
<g stroke="#64748b" stroke-width="1.4" fill="none">
  <!-- users -> health_profiles (1:0..1) -->
  <path d="M640,90 H178 V250" marker-start="url(#one)" marker-end="url(#oneOpt)"/>
  <!-- users -> scans -->
  <path d="M760,150 V205 H745 V250" marker-start="url(#one)" marker-end="url(#manyOpt)"/>
  <!-- users -> conversations -->
  <path d="M880,80 H905 V560 H870" marker-start="url(#one)" marker-end="url(#manyOpt)"/>
  <!-- users -> symptom_queries -->
  <path d="M880,60 H1210 V480" marker-start="url(#one)" marker-end="url(#manyOpt)"/>
  <!-- health_profiles -> medications -->
  <path d="M120,404 V480" marker-start="url(#one)" marker-end="url(#manyOpt)"/>
  <!-- health_profiles -> allergies -->
  <path d="M250,404 V430 H300 V690 H155 V700" marker-start="url(#one)" marker-end="url(#manyOpt)"/>
  <!-- health_profiles -> conversations (NEW) -->
  <path d="M315,330 H470 V540 H620" marker-start="url(#one)" marker-end="url(#manyOpt)"/>
  <!-- health_profiles -> symptom_queries (NEW) -->
  <path d="M315,300 V232 H1170 V560 H1200" marker-start="url(#one)" marker-end="url(#manyOpt)"/>
  <!-- allergens -> allergies (NEW) -->
  <path d="M450,900 V885 H155 V837" marker-start="url(#one)" marker-end="url(#manyOpt)"/>
  <!-- allergens -> pill_allergens (NEW) -->
  <path d="M560,940 H660" marker-start="url(#one)" marker-end="url(#manyOpt)"/>
  <!-- pills -> pill_allergens (NEW) -->
  <path d="M1260,421 V690 H1190 V946 H890" marker-start="url(#one)" marker-end="url(#manyOpt)"/>
  <!-- pills -> scans -->
  <path d="M1240,330 H870" marker-start="url(#one)" marker-end="url(#manyOpt)"/>
  <!-- pills -> conversations -->
  <path d="M1240,390 H905 V520 H870" marker-start="url(#one)" marker-end="url(#manyOpt)"/>
  <!-- pills -> medications -->
  <path d="M1280,421 V670 H285 V557 H270" marker-start="url(#one)" marker-end="url(#manyOpt)"/>
  <!-- pills -> symptom_recommendations (NEW) -->
  <path d="M1525,421 V695 H1385 V710" marker-start="url(#one)" marker-end="url(#manyOpt)"/>
  <!-- scans -> conversations (1:0..1) -->
  <path d="M745,404 V480" marker-start="url(#one)" marker-end="url(#oneOpt)"/>
  <!-- conversations -> messages -->
  <path d="M745,651 V680 H720 V710" marker-start="url(#one)" marker-end="url(#manyOpt)"/>
  <!-- conversations -> symptom_queries (NEW) -->
  <path d="M870,585 H1200" marker-start="url(#one)" marker-end="url(#manyOpt)"/>
  <!-- symptom_queries -> symptom_recommendations (NEW) -->
  <path d="M1360,634 V710" marker-start="url(#one)" marker-end="url(#manyOpt)"/>
</g>
<text x="478" y="534" font-size="9" font-weight="600" fill="#3b5bdb">건강정보 참고</text>
<text x="1010" y="579" font-size="9" font-weight="600" fill="#d97706" text-anchor="middle">대화 증상 → 추천</text>
<text x="668" y="476" font-size="9" font-weight="600" fill="#0d9488">인식 성공 시 자동 생성</text>
<text x="568" y="896" font-size="9" font-weight="600" fill="#7c3aed">성분 매칭 → 못 먹는 약 판정</text>

<!-- ============ 계정 users ============ -->
<g>
  <rect x="640" y="30" width="240" height="120" rx="9" fill="#ffffff" stroke="#cbd2dc"/>
  <path d="M640,56 V39 Q640,30 649,30 H871 Q880,30 880,39 V56 Z" fill="#3b5bdb"/>
  <text x="654" y="48" font-size="12.5" font-weight="700" fill="#fff">계정 <tspan font-size="10" fill-opacity="0.8">users</tspan></text>
  <line x1="640" y1="56" x2="880" y2="56" stroke="#cbd2dc"/>
  <text x="654" y="71" font-size="10.5" font-weight="700" fill="#1f2937">번호</text><text x="842" y="71" font-size="9" text-anchor="end" fill="#9aa3af" font-family="ui-monospace,Consolas,monospace">id</text><g transform="translate(848,61)"><rect width="20" height="13" rx="3" fill="#fde68a"/><text x="10" y="9.5" font-size="7.5" font-weight="700" text-anchor="middle" fill="#92400e">PK</text></g>
  <text x="654" y="88" font-size="10.5" fill="#1f2937">이메일</text><text x="842" y="88" font-size="9" text-anchor="end" fill="#9aa3af" font-family="ui-monospace,Consolas,monospace">email</text><g transform="translate(848,78)"><rect width="20" height="13" rx="3" fill="#e5e7eb"/><text x="10" y="9.5" font-size="7.5" font-weight="700" text-anchor="middle" fill="#374151">UQ</text></g>
  <text x="654" y="105" font-size="10.5" fill="#1f2937">비밀번호</text><text x="866" y="105" font-size="9" text-anchor="end" fill="#9aa3af" font-family="ui-monospace,Consolas,monospace">password_hash</text>
  <text x="654" y="122" font-size="10.5" fill="#1f2937">닉네임</text><text x="866" y="122" font-size="9" text-anchor="end" fill="#9aa3af" font-family="ui-monospace,Consolas,monospace">nickname</text>
  <text x="654" y="139" font-size="10.5" fill="#1f2937">가입일시</text><text x="866" y="139" font-size="9" text-anchor="end" fill="#9aa3af" font-family="ui-monospace,Consolas,monospace">created_at</text>
</g>

<!-- ============ 건강정보 health_profiles ============ -->
<g>
  <rect x="40" y="250" width="275" height="154" rx="9" fill="#ffffff" stroke="#cbd2dc"/>
  <path d="M40,276 V259 Q40,250 49,250 H306 Q315,250 315,259 V276 Z" fill="#3b5bdb"/>
  <text x="54" y="268" font-size="12" font-weight="700" fill="#fff">건강정보 <tspan font-size="9.5" fill-opacity="0.8">health_profiles</tspan></text>
  <line x1="40" y1="276" x2="315" y2="276" stroke="#cbd2dc"/>
  <text x="54" y="291" font-size="10.5" font-weight="700" fill="#1f2937">번호</text><text x="277" y="291" font-size="9" text-anchor="end" fill="#9aa3af" font-family="ui-monospace,Consolas,monospace">id</text><g transform="translate(283,281)"><rect width="20" height="13" rx="3" fill="#fde68a"/><text x="10" y="9.5" font-size="7.5" font-weight="700" text-anchor="middle" fill="#92400e">PK</text></g>
  <text x="54" y="308" font-size="10.5" fill="#1f2937">사용자</text><text x="277" y="308" font-size="9" text-anchor="end" fill="#9aa3af" font-family="ui-monospace,Consolas,monospace">user_id</text><g transform="translate(283,298)"><rect width="20" height="13" rx="3" fill="#dbeafe"/><text x="10" y="9.5" font-size="7.5" font-weight="700" text-anchor="middle" fill="#1e40af">FK</text></g>
  <text x="54" y="325" font-size="10.5" fill="#1f2937">출생연도</text><text x="301" y="325" font-size="9" text-anchor="end" fill="#9aa3af" font-family="ui-monospace,Consolas,monospace">birth_year</text>
  <text x="54" y="342" font-size="10.5" fill="#1f2937">성별</text><text x="301" y="342" font-size="9" text-anchor="end" fill="#9aa3af" font-family="ui-monospace,Consolas,monospace">sex</text>
  <text x="54" y="359" font-size="10.5" fill="#1f2937">임신 여부</text><text x="301" y="359" font-size="9" text-anchor="end" fill="#9aa3af" font-family="ui-monospace,Consolas,monospace">is_pregnant</text>
  <text x="54" y="376" font-size="10.5" fill="#1f2937">수유 여부</text><text x="301" y="376" font-size="9" text-anchor="end" fill="#9aa3af" font-family="ui-monospace,Consolas,monospace">is_breastfeeding</text>
  <text x="54" y="393" font-size="10.5" fill="#1f2937">수정일시</text><text x="301" y="393" font-size="9" text-anchor="end" fill="#9aa3af" font-family="ui-monospace,Consolas,monospace">updated_at</text>
</g>

<!-- ============ 복용약 medications ============ -->
<g>
  <rect x="40" y="480" width="230" height="137" rx="9" fill="#ffffff" stroke="#cbd2dc"/>
  <path d="M40,506 V489 Q40,480 49,480 H261 Q270,480 270,489 V506 Z" fill="#3b5bdb"/>
  <text x="54" y="498" font-size="12" font-weight="700" fill="#fff">복용약 <tspan font-size="9.5" fill-opacity="0.8">medications</tspan></text>
  <line x1="40" y1="506" x2="270" y2="506" stroke="#cbd2dc"/>
  <text x="54" y="521" font-size="10.5" font-weight="700" fill="#1f2937">번호</text><text x="232" y="521" font-size="9" text-anchor="end" fill="#9aa3af" font-family="ui-monospace,Consolas,monospace">id</text><g transform="translate(238,511)"><rect width="20" height="13" rx="3" fill="#fde68a"/><text x="10" y="9.5" font-size="7.5" font-weight="700" text-anchor="middle" fill="#92400e">PK</text></g>
  <text x="54" y="538" font-size="10.5" fill="#1f2937">건강정보</text><text x="232" y="538" font-size="9" text-anchor="end" fill="#9aa3af" font-family="ui-monospace,Consolas,monospace">profile_id</text><g transform="translate(238,528)"><rect width="20" height="13" rx="3" fill="#dbeafe"/><text x="10" y="9.5" font-size="7.5" font-weight="700" text-anchor="middle" fill="#1e40af">FK</text></g>
  <text x="54" y="555" font-size="10.5" fill="#1f2937">약 이름</text><text x="256" y="555" font-size="9" text-anchor="end" fill="#9aa3af" font-family="ui-monospace,Consolas,monospace">name</text>
  <text x="54" y="572" font-size="10.5" fill="#1f2937">약품코드</text><text x="226" y="572" font-size="9" text-anchor="end" fill="#9aa3af" font-family="ui-monospace,Consolas,monospace">pill_item_seq</text><g transform="translate(232,562)"><rect width="26" height="13" rx="3" fill="#dbeafe"/><text x="13" y="9.5" font-size="7.5" font-weight="700" text-anchor="middle" fill="#1e40af">FK?</text></g>
  <text x="54" y="589" font-size="10.5" fill="#1f2937">메모</text><text x="256" y="589" font-size="9" text-anchor="end" fill="#9aa3af" font-family="ui-monospace,Consolas,monospace">memo</text>
  <text x="54" y="606" font-size="10.5" fill="#1f2937">등록일시</text><text x="256" y="606" font-size="9" text-anchor="end" fill="#9aa3af" font-family="ui-monospace,Consolas,monospace">created_at</text>
</g>

<!-- ============ 알레르기 allergies ============ -->
<g>
  <rect x="40" y="700" width="230" height="137" rx="9" fill="#ffffff" stroke="#cbd2dc"/>
  <path d="M40,726 V709 Q40,700 49,700 H261 Q270,700 270,709 V726 Z" fill="#3b5bdb"/>
  <text x="54" y="718" font-size="12" font-weight="700" fill="#fff">알레르기 <tspan font-size="9.5" fill-opacity="0.8">allergies</tspan></text>
  <line x1="40" y1="726" x2="270" y2="726" stroke="#cbd2dc"/>
  <text x="54" y="741" font-size="10.5" font-weight="700" fill="#1f2937">번호</text><text x="232" y="741" font-size="9" text-anchor="end" fill="#9aa3af" font-family="ui-monospace,Consolas,monospace">id</text><g transform="translate(238,731)"><rect width="20" height="13" rx="3" fill="#fde68a"/><text x="10" y="9.5" font-size="7.5" font-weight="700" text-anchor="middle" fill="#92400e">PK</text></g>
  <text x="54" y="758" font-size="10.5" fill="#1f2937">건강정보</text><text x="232" y="758" font-size="9" text-anchor="end" fill="#9aa3af" font-family="ui-monospace,Consolas,monospace">profile_id</text><g transform="translate(238,748)"><rect width="20" height="13" rx="3" fill="#dbeafe"/><text x="10" y="9.5" font-size="7.5" font-weight="700" text-anchor="middle" fill="#1e40af">FK</text></g>
  <text x="54" y="775" font-size="10.5" font-weight="700" fill="#7c3aed">성분</text><text x="226" y="775" font-size="9" text-anchor="end" fill="#7c3aed" font-family="ui-monospace,Consolas,monospace">allergen_id</text><g transform="translate(232,765)"><rect width="26" height="13" rx="3" fill="#ede9fe"/><text x="13" y="9.5" font-size="7.5" font-weight="700" text-anchor="middle" fill="#6d28d9">FK?</text></g>
  <text x="54" y="792" font-size="10.5" fill="#1f2937">입력 원문</text><text x="256" y="792" font-size="9" text-anchor="end" fill="#9aa3af" font-family="ui-monospace,Consolas,monospace">name</text>
  <text x="54" y="809" font-size="10.5" fill="#1f2937">메모</text><text x="256" y="809" font-size="9" text-anchor="end" fill="#9aa3af" font-family="ui-monospace,Consolas,monospace">memo</text>
  <text x="54" y="826" font-size="10.5" fill="#1f2937">등록일시</text><text x="256" y="826" font-size="9" text-anchor="end" fill="#9aa3af" font-family="ui-monospace,Consolas,monospace">created_at</text>
</g>

<!-- ============ 인식 scans ============ -->
<g>
  <rect x="620" y="250" width="250" height="154" rx="9" fill="#ffffff" stroke="#cbd2dc"/>
  <path d="M620,276 V259 Q620,250 629,250 H861 Q870,250 870,259 V276 Z" fill="#0d9488"/>
  <text x="634" y="268" font-size="12" font-weight="700" fill="#fff">인식 <tspan font-size="9.5" fill-opacity="0.85">scans</tspan></text>
  <line x1="620" y1="276" x2="870" y2="276" stroke="#cbd2dc"/>
  <text x="634" y="291" font-size="10.5" font-weight="700" fill="#1f2937">번호</text><text x="832" y="291" font-size="9" text-anchor="end" fill="#9aa3af" font-family="ui-monospace,Consolas,monospace">id</text><g transform="translate(838,281)"><rect width="20" height="13" rx="3" fill="#fde68a"/><text x="10" y="9.5" font-size="7.5" font-weight="700" text-anchor="middle" fill="#92400e">PK</text></g>
  <text x="634" y="308" font-size="10.5" fill="#1f2937">사용자</text><text x="832" y="308" font-size="9" text-anchor="end" fill="#9aa3af" font-family="ui-monospace,Consolas,monospace">user_id</text><g transform="translate(838,298)"><rect width="20" height="13" rx="3" fill="#dbeafe"/><text x="10" y="9.5" font-size="7.5" font-weight="700" text-anchor="middle" fill="#1e40af">FK</text></g>
  <text x="634" y="325" font-size="10.5" fill="#1f2937">추출 속성</text><text x="856" y="325" font-size="9" text-anchor="end" fill="#9aa3af" font-family="ui-monospace,Consolas,monospace">vision_attrs</text>
  <text x="634" y="342" font-size="10.5" fill="#1f2937">매칭 품목</text><text x="826" y="342" font-size="9" text-anchor="end" fill="#9aa3af" font-family="ui-monospace,Consolas,monospace">matched_item_seq</text><g transform="translate(832,332)"><rect width="26" height="13" rx="3" fill="#dbeafe"/><text x="13" y="9.5" font-size="7.5" font-weight="700" text-anchor="middle" fill="#1e40af">FK?</text></g>
  <text x="634" y="359" font-size="10.5" fill="#1f2937">신뢰도</text><text x="856" y="359" font-size="9" text-anchor="end" fill="#9aa3af" font-family="ui-monospace,Consolas,monospace">confidence</text>
  <text x="634" y="376" font-size="10.5" fill="#1f2937">상태</text><text x="856" y="376" font-size="9" text-anchor="end" fill="#9aa3af" font-family="ui-monospace,Consolas,monospace">status</text>
  <text x="634" y="393" font-size="10.5" fill="#1f2937">인식일시</text><text x="856" y="393" font-size="9" text-anchor="end" fill="#9aa3af" font-family="ui-monospace,Consolas,monospace">created_at</text>
</g>

<!-- ============ 대화 세션 conversations ============ -->
<g>
  <rect x="620" y="480" width="250" height="171" rx="9" fill="#ffffff" stroke="#cbd2dc"/>
  <path d="M620,506 V489 Q620,480 629,480 H861 Q870,480 870,489 V506 Z" fill="#0d9488"/>
  <text x="634" y="498" font-size="12" font-weight="700" fill="#fff">대화 세션 <tspan font-size="9.5" fill-opacity="0.85">conversations</tspan></text>
  <line x1="620" y1="506" x2="870" y2="506" stroke="#cbd2dc"/>
  <text x="634" y="521" font-size="10.5" font-weight="700" fill="#1f2937">번호</text><text x="832" y="521" font-size="9" text-anchor="end" fill="#9aa3af" font-family="ui-monospace,Consolas,monospace">id</text><g transform="translate(838,511)"><rect width="20" height="13" rx="3" fill="#fde68a"/><text x="10" y="9.5" font-size="7.5" font-weight="700" text-anchor="middle" fill="#92400e">PK</text></g>
  <text x="634" y="538" font-size="10.5" fill="#1f2937">사용자</text><text x="832" y="538" font-size="9" text-anchor="end" fill="#9aa3af" font-family="ui-monospace,Consolas,monospace">user_id</text><g transform="translate(838,528)"><rect width="20" height="13" rx="3" fill="#dbeafe"/><text x="10" y="9.5" font-size="7.5" font-weight="700" text-anchor="middle" fill="#1e40af">FK</text></g>
  <text x="634" y="555" font-size="10.5" font-weight="700" fill="#3b5bdb">건강정보</text><text x="826" y="555" font-size="9" text-anchor="end" fill="#3b5bdb" font-family="ui-monospace,Consolas,monospace">profile_id</text><g transform="translate(832,545)"><rect width="26" height="13" rx="3" fill="#dbe3fb"/><text x="13" y="9.5" font-size="7.5" font-weight="700" text-anchor="middle" fill="#1e40af">FK?</text></g>
  <text x="634" y="572" font-size="10.5" fill="#1f2937">품목코드</text><text x="826" y="572" font-size="9" text-anchor="end" fill="#9aa3af" font-family="ui-monospace,Consolas,monospace">pill_item_seq</text><g transform="translate(832,562)"><rect width="26" height="13" rx="3" fill="#dbeafe"/><text x="13" y="9.5" font-size="7.5" font-weight="700" text-anchor="middle" fill="#1e40af">FK?</text></g>
  <text x="634" y="589" font-size="10.5" fill="#1f2937">인식</text><text x="826" y="589" font-size="9" text-anchor="end" fill="#9aa3af" font-family="ui-monospace,Consolas,monospace">scan_id</text><g transform="translate(832,579)"><rect width="26" height="13" rx="3" fill="#dbeafe"/><text x="13" y="9.5" font-size="7.5" font-weight="700" text-anchor="middle" fill="#1e40af">FK?</text></g>
  <text x="634" y="606" font-size="10.5" font-weight="700" fill="#0d9488">한줄요약</text><text x="856" y="606" font-size="9" text-anchor="end" fill="#0d9488" font-family="ui-monospace,Consolas,monospace">summary</text>
  <text x="634" y="623" font-size="10.5" fill="#1f2937">생성일시</text><text x="856" y="623" font-size="9" text-anchor="end" fill="#9aa3af" font-family="ui-monospace,Consolas,monospace">created_at</text>
  <text x="634" y="640" font-size="10.5" fill="#1f2937">수정일시</text><text x="856" y="640" font-size="9" text-anchor="end" fill="#9aa3af" font-family="ui-monospace,Consolas,monospace">updated_at</text>
</g>

<!-- ============ 대화 메시지 messages ============ -->
<g>
  <rect x="620" y="710" width="200" height="120" rx="9" fill="#ffffff" stroke="#cbd2dc"/>
  <path d="M620,736 V719 Q620,710 629,710 H811 Q820,710 820,719 V736 Z" fill="#0d9488"/>
  <text x="634" y="728" font-size="11.5" font-weight="700" fill="#fff">메시지 <tspan font-size="9.5" fill-opacity="0.85">messages</tspan></text>
  <line x1="620" y1="736" x2="820" y2="736" stroke="#cbd2dc"/>
  <text x="634" y="751" font-size="10.5" font-weight="700" fill="#1f2937">번호</text><text x="782" y="751" font-size="9" text-anchor="end" fill="#9aa3af" font-family="ui-monospace,Consolas,monospace">id</text><g transform="translate(788,741)"><rect width="20" height="13" rx="3" fill="#fde68a"/><text x="10" y="9.5" font-size="7.5" font-weight="700" text-anchor="middle" fill="#92400e">PK</text></g>
  <text x="634" y="768" font-size="10.5" fill="#1f2937">대화</text><text x="782" y="768" font-size="9" text-anchor="end" fill="#9aa3af" font-family="ui-monospace,Consolas,monospace">conversation_id</text><g transform="translate(788,758)"><rect width="20" height="13" rx="3" fill="#dbeafe"/><text x="10" y="9.5" font-size="7.5" font-weight="700" text-anchor="middle" fill="#1e40af">FK</text></g>
  <text x="634" y="785" font-size="10.5" fill="#1f2937">역할</text><text x="806" y="785" font-size="9" text-anchor="end" fill="#9aa3af" font-family="ui-monospace,Consolas,monospace">role</text>
  <text x="634" y="802" font-size="10.5" fill="#1f2937">내용</text><text x="806" y="802" font-size="9" text-anchor="end" fill="#9aa3af" font-family="ui-monospace,Consolas,monospace">content</text>
  <text x="634" y="819" font-size="10.5" fill="#1f2937">작성일시</text><text x="806" y="819" font-size="9" text-anchor="end" fill="#9aa3af" font-family="ui-monospace,Consolas,monospace">created_at</text>
</g>

<!-- ============ 약 pills ============ -->
<g>
  <rect x="1240" y="250" width="290" height="171" rx="9" fill="#ffffff" stroke="#cbd2dc"/>
  <path d="M1240,276 V259 Q1240,250 1249,250 H1521 Q1530,250 1530,259 V276 Z" fill="#475569"/>
  <text x="1254" y="268" font-size="12" font-weight="700" fill="#fff">약 (식약처 캐시) <tspan font-size="9.5" fill-opacity="0.85">pills</tspan></text>
  <line x1="1240" y1="276" x2="1530" y2="276" stroke="#cbd2dc"/>
  <text x="1254" y="291" font-size="10.5" font-weight="700" fill="#1f2937">품목코드</text><text x="1492" y="291" font-size="9" text-anchor="end" fill="#9aa3af" font-family="ui-monospace,Consolas,monospace">item_seq</text><g transform="translate(1498,281)"><rect width="20" height="13" rx="3" fill="#fde68a"/><text x="10" y="9.5" font-size="7.5" font-weight="700" text-anchor="middle" fill="#92400e">PK</text></g>
  <text x="1254" y="308" font-size="10.5" fill="#1f2937">제품명</text><text x="1516" y="308" font-size="9" text-anchor="end" fill="#9aa3af" font-family="ui-monospace,Consolas,monospace">item_name</text>
  <text x="1254" y="325" font-size="10.5" fill="#1f2937">제조사</text><text x="1516" y="325" font-size="9" text-anchor="end" fill="#9aa3af" font-family="ui-monospace,Consolas,monospace">entp_name</text>
  <text x="1254" y="342" font-size="10.5" fill="#1f2937">구분(일반/전문)</text><text x="1516" y="342" font-size="9" text-anchor="end" fill="#9aa3af" font-family="ui-monospace,Consolas,monospace">is_otc</text>
  <text x="1254" y="359" font-size="10.5" fill="#1f2937">모양·색·각인</text><text x="1516" y="359" font-size="9" text-anchor="end" fill="#9aa3af" font-family="ui-monospace,Consolas,monospace">shape/color/mark</text>
  <text x="1254" y="376" font-size="10.5" fill="#1f2937">효능·용법·주의</text><text x="1516" y="376" font-size="9" text-anchor="end" fill="#9aa3af" font-family="ui-monospace,Consolas,monospace">efcy/usage/caution</text>
  <text x="1254" y="393" font-size="10.5" fill="#1f2937">원본 데이터</text><text x="1516" y="393" font-size="9" text-anchor="end" fill="#9aa3af" font-family="ui-monospace,Consolas,monospace">raw_json</text>
  <text x="1254" y="410" font-size="10.5" fill="#1f2937">조회일시</text><text x="1516" y="410" font-size="9" text-anchor="end" fill="#9aa3af" font-family="ui-monospace,Consolas,monospace">fetched_at</text>
</g>

<!-- ============ 증상 추천 symptom_queries ============ -->
<g>
  <rect x="1200" y="480" width="320" height="154" rx="9" fill="#ffffff" stroke="#cbd2dc"/>
  <path d="M1200,506 V489 Q1200,480 1209,480 H1511 Q1520,480 1520,489 V506 Z" fill="#d97706"/>
  <text x="1214" y="498" font-size="12" font-weight="700" fill="#fff">증상 추천 <tspan font-size="9.5" fill-opacity="0.85">symptom_queries</tspan></text>
  <line x1="1200" y1="506" x2="1520" y2="506" stroke="#cbd2dc"/>
  <text x="1214" y="521" font-size="10.5" font-weight="700" fill="#1f2937">번호</text><text x="1482" y="521" font-size="9" text-anchor="end" fill="#9aa3af" font-family="ui-monospace,Consolas,monospace">id</text><g transform="translate(1488,511)"><rect width="20" height="13" rx="3" fill="#fde68a"/><text x="10" y="9.5" font-size="7.5" font-weight="700" text-anchor="middle" fill="#92400e">PK</text></g>
  <text x="1214" y="538" font-size="10.5" fill="#1f2937">사용자</text><text x="1482" y="538" font-size="9" text-anchor="end" fill="#9aa3af" font-family="ui-monospace,Consolas,monospace">user_id</text><g transform="translate(1488,528)"><rect width="20" height="13" rx="3" fill="#dbeafe"/><text x="10" y="9.5" font-size="7.5" font-weight="700" text-anchor="middle" fill="#1e40af">FK</text></g>
  <text x="1214" y="555" font-size="10.5" font-weight="700" fill="#3b5bdb">건강정보</text><text x="1476" y="555" font-size="9" text-anchor="end" fill="#3b5bdb" font-family="ui-monospace,Consolas,monospace">profile_id</text><g transform="translate(1482,545)"><rect width="26" height="13" rx="3" fill="#dbe3fb"/><text x="13" y="9.5" font-size="7.5" font-weight="700" text-anchor="middle" fill="#1e40af">FK?</text></g>
  <text x="1214" y="572" font-size="10.5" font-weight="700" fill="#0d9488">대화 세션</text><text x="1476" y="572" font-size="9" text-anchor="end" fill="#0d9488" font-family="ui-monospace,Consolas,monospace">conversation_id</text><g transform="translate(1482,562)"><rect width="26" height="13" rx="3" fill="#d7f3ee"/><text x="13" y="9.5" font-size="7.5" font-weight="700" text-anchor="middle" fill="#0d7a6f">FK?</text></g>
  <text x="1214" y="589" font-size="10.5" fill="#1f2937">증상</text><text x="1506" y="589" font-size="9" text-anchor="end" fill="#9aa3af" font-family="ui-monospace,Consolas,monospace">symptom_text</text>
  <text x="1214" y="606" font-size="10.5" fill="#1f2937">결과(원본)</text><text x="1506" y="606" font-size="9" text-anchor="end" fill="#9aa3af" font-family="ui-monospace,Consolas,monospace">result</text>
  <text x="1214" y="623" font-size="10.5" fill="#1f2937">작성일시</text><text x="1506" y="623" font-size="9" text-anchor="end" fill="#9aa3af" font-family="ui-monospace,Consolas,monospace">created_at</text>
</g>

<!-- ============ 증상 추천-약 symptom_recommendations ============ -->
<g>
  <rect x="1240" y="710" width="290" height="120" rx="9" fill="#ffffff" stroke="#cbd2dc"/>
  <path d="M1240,736 V719 Q1240,710 1249,710 H1521 Q1530,710 1530,719 V736 Z" fill="#d97706"/>
  <text x="1254" y="728" font-size="11.5" font-weight="700" fill="#fff">추천 약 <tspan font-size="9.5" fill-opacity="0.85">symptom_recommendations</tspan></text>
  <line x1="1240" y1="736" x2="1530" y2="736" stroke="#cbd2dc"/>
  <text x="1254" y="751" font-size="10.5" font-weight="700" fill="#1f2937">번호</text><text x="1492" y="751" font-size="9" text-anchor="end" fill="#9aa3af" font-family="ui-monospace,Consolas,monospace">id</text><g transform="translate(1498,741)"><rect width="20" height="13" rx="3" fill="#fde68a"/><text x="10" y="9.5" font-size="7.5" font-weight="700" text-anchor="middle" fill="#92400e">PK</text></g>
  <text x="1254" y="768" font-size="10.5" fill="#1f2937">증상추천</text><text x="1476" y="768" font-size="9" text-anchor="end" fill="#9aa3af" font-family="ui-monospace,Consolas,monospace">symptom_query_id</text><g transform="translate(1482,758)"><rect width="20" height="13" rx="3" fill="#dbeafe"/><text x="10" y="9.5" font-size="7.5" font-weight="700" text-anchor="middle" fill="#1e40af">FK</text></g>
  <text x="1254" y="785" font-size="10.5" fill="#1f2937">약품코드</text><text x="1482" y="785" font-size="9" text-anchor="end" fill="#9aa3af" font-family="ui-monospace,Consolas,monospace">pill_item_seq</text><g transform="translate(1488,775)"><rect width="20" height="13" rx="3" fill="#dbeafe"/><text x="10" y="9.5" font-size="7.5" font-weight="700" text-anchor="middle" fill="#1e40af">FK</text></g>
  <text x="1254" y="802" font-size="10.5" fill="#1f2937">추천 순위</text><text x="1506" y="802" font-size="9" text-anchor="end" fill="#9aa3af" font-family="ui-monospace,Consolas,monospace">rank</text>
  <text x="1254" y="819" font-size="10.5" fill="#1f2937">추천 이유</text><text x="1506" y="819" font-size="9" text-anchor="end" fill="#9aa3af" font-family="ui-monospace,Consolas,monospace">reason</text>
</g>

<!-- ============ 성분 마스터 allergens ============ -->
<g>
  <rect x="360" y="900" width="200" height="80" rx="9" fill="#ffffff" stroke="#cbd2dc"/>
  <path d="M360,926 V909 Q360,900 369,900 H551 Q560,900 560,909 V926 Z" fill="#7c3aed"/>
  <text x="374" y="918" font-size="11.5" font-weight="700" fill="#fff">성분 (마스터) <tspan font-size="9.5" fill-opacity="0.85">allergens</tspan></text>
  <line x1="360" y1="926" x2="560" y2="926" stroke="#cbd2dc"/>
  <text x="374" y="941" font-size="10.5" font-weight="700" fill="#1f2937">번호</text><text x="522" y="941" font-size="9" text-anchor="end" fill="#9aa3af" font-family="ui-monospace,Consolas,monospace">id</text><g transform="translate(528,931)"><rect width="20" height="13" rx="3" fill="#fde68a"/><text x="10" y="9.5" font-size="7.5" font-weight="700" text-anchor="middle" fill="#92400e">PK</text></g>
  <text x="374" y="958" font-size="10.5" fill="#1f2937">성분명</text><text x="528" y="958" font-size="9" text-anchor="end" fill="#9aa3af" font-family="ui-monospace,Consolas,monospace">name</text><g transform="translate(534,948)"><rect width="20" height="13" rx="3" fill="#e5e7eb"/><text x="10" y="9.5" font-size="7.5" font-weight="700" text-anchor="middle" fill="#374151">UQ</text></g>
</g>

<!-- ============ 약-성분 pill_allergens ============ -->
<g>
  <rect x="660" y="900" width="230" height="86" rx="9" fill="#ffffff" stroke="#cbd2dc"/>
  <path d="M660,926 V909 Q660,900 669,900 H881 Q890,900 890,909 V926 Z" fill="#7c3aed"/>
  <text x="674" y="918" font-size="11.5" font-weight="700" fill="#fff">약-성분 <tspan font-size="9.5" fill-opacity="0.85">pill_allergens</tspan></text>
  <line x1="660" y1="926" x2="890" y2="926" stroke="#cbd2dc"/>
  <text x="674" y="941" font-size="10.5" font-weight="700" fill="#1f2937">번호</text><text x="852" y="941" font-size="9" text-anchor="end" fill="#9aa3af" font-family="ui-monospace,Consolas,monospace">id</text><g transform="translate(858,931)"><rect width="20" height="13" rx="3" fill="#fde68a"/><text x="10" y="9.5" font-size="7.5" font-weight="700" text-anchor="middle" fill="#92400e">PK</text></g>
  <text x="674" y="958" font-size="10.5" fill="#1f2937">약품코드</text><text x="846" y="958" font-size="9" text-anchor="end" fill="#9aa3af" font-family="ui-monospace,Consolas,monospace">pill_item_seq</text><g transform="translate(852,948)"><rect width="20" height="13" rx="3" fill="#dbeafe"/><text x="10" y="9.5" font-size="7.5" font-weight="700" text-anchor="middle" fill="#1e40af">FK</text></g>
  <text x="674" y="975" font-size="10.5" font-weight="700" fill="#7c3aed">성분</text><text x="846" y="975" font-size="9" text-anchor="end" fill="#7c3aed" font-family="ui-monospace,Consolas,monospace">allergen_id</text><g transform="translate(852,965)"><rect width="20" height="13" rx="3" fill="#ede9fe"/><text x="10" y="9.5" font-size="7.5" font-weight="700" text-anchor="middle" fill="#6d28d9">FK</text></g>
</g>
</svg>
